<?xml version="1.0" encoding="UTF-8"?>
<svg id="Layer_1" data-name="Layer 1" xmlns="http://www.w3.org/2000/svg" version="1.1" viewBox="0 0 841.9 595.3">
  <defs>
    <style>
      .cls-1 {
        fill: #43b0c0;
      }

      .cls-1, .cls-2, .cls-3 {
        stroke-width: 0px;
      }

      .cls-2 {
        fill: #2d6c78;
      }

      .cls-3 {
        fill: #e6bf20;
      }
    </style>
  </defs>
  <polygon class="cls-1" points="116.3 231.8 93.3 245.1 69.9 258.4 69.9 231.8 69.9 205.1 93.3 218.1 116.3 231.8"/>
  <polygon class="cls-1" points="189.1 247.3 179.3 252.9 169.5 258.6 169.3 247.3 169.5 235.9 179.3 241.5 189.1 247.3"/>
  <polygon class="cls-1" points="305.1 247.3 295.3 252.9 285.3 258.6 285.3 247.3 285.3 235.9 295.3 241.5 305.1 247.3"/>
  <g>
    <path class="cls-2" d="M51.5,345.2v-74.9c0-1.9.6-3.3,1.7-4.6s2.6-1.7,4.6-1.7h10.9c1.9,0,3.3.6,4.6,1.7,1.1,1.1,1.7,2.6,1.7,4.6v74.9c0,1.9-.6,3.3-1.7,4.6-1.1,1.1-2.6,1.7-4.6,1.7h-10.9c-1.9,0-3.3-.6-4.6-1.7-1.1-1.1-1.7-2.6-1.7-4.6h0Z"/>
    <path class="cls-2" d="M159,345.2v-74.9c0-1.9.6-3.3,1.7-4.6s2.6-1.7,4.6-1.7h10.9c1.9,0,3.3.6,4.6,1.7,1.1,1.1,1.7,2.6,1.7,4.6v74.9c0,1.9-.6,3.3-1.7,4.6-1.1,1.1-2.6,1.7-4.6,1.7h-10.9c-1.9,0-3.3-.6-4.6-1.7-1.1-1.1-1.7-2.6-1.7-4.6Z"/>
    <path class="cls-2" d="M220.9,351.4h-17.1c-1.9,0-3.3-.6-4.6-1.7-1.1-1.1-1.7-2.6-1.7-4.6v-112.4c0-1.9.6-3.3,1.7-4.6,1.1-1.1,2.6-1.7,4.6-1.7h10.9c1.9,0,3.3.6,4.6,1.7,1.1,1.1,1.7,2.6,1.7,4.6v118.8h0ZM227.1,332.7h3.2c1.9,0,3.3-.6,4.6-1.7,1.1-1.1,1.7-2.6,1.7-4.6v-37.5c0-1.9-.6-3.3-1.7-4.6-1.1-1.1-2.6-1.7-4.6-1.7h-3.2v-18.8h14.1c2.8,0,5.4.4,7.7,1.4,2.4.8,4.3,2.2,5.9,3.9s2.9,3.6,3.9,5.9c.8,2.4,1.4,4.8,1.4,7.7v49.9c0,2.8-.4,5.4-1.4,7.6-.8,2.4-2.2,4.3-3.9,5.9s-3.6,2.9-5.9,3.9c-2.4.8-4.8,1.4-7.7,1.4h-14.1v-18.8h0Z"/>
    <path class="cls-2" d="M274.8,345.2v-74.9c0-1.9.6-3.3,1.7-4.6s2.6-1.7,4.6-1.7h10.9c1.9,0,3.3.6,4.6,1.7,1.1,1.1,1.7,2.6,1.7,4.6v74.9c0,1.9-.6,3.3-1.7,4.6-1.1,1.1-2.6,1.7-4.6,1.7h-10.9c-1.9,0-3.3-.6-4.6-1.7-1.1-1.1-1.7-2.6-1.7-4.6Z"/>
    <path class="cls-2" d="M313.3,276.4c0-1.9.3-3.6,1-5.1.6-1.5,1.4-2.9,2.5-3.9,1.1-1.1,2.4-1.9,3.9-2.5s3.2-1,5.1-1h26.5c1.9,0,3.3.6,4.6,1.7,1.1,1.1,1.7,2.6,1.7,4.6v6.2c0,1.9-.6,3.3-1.7,4.6-1.1,1.1-2.6,1.7-4.6,1.7h-9.4c-1.9,0-3.3.6-4.6,1.7s-1.7,2.6-1.7,4.6v56.3c0,1.9-.6,3.3-1.7,4.6-1.1,1.1-2.6,1.7-4.6,1.7h-10.9c-1.9,0-3.3-.6-4.6-1.7-1.1-1.1-1.7-2.6-1.7-4.6v-68.7h0l.2-.2Z"/>
    <path class="cls-2" d="M465.8,326.5c0,1.9.6,3.3,1.7,4.6,1.1,1.1,2.6,1.7,4.6,1.7h3.2v18.8h-14.1c-2.8,0-5.4-.4-7.6-1.4-2.4-.8-4.3-2.2-5.9-3.9-1.7-1.7-2.9-3.6-3.9-5.9-.8-2.4-1.4-4.8-1.4-7.6v-18.8c0-2.8.4-5.4,1.4-7.7s2.2-4.3,3.9-5.9,3.6-2.9,5.9-3.9c2.4-.8,4.8-1.4,7.6-1.4h14.1v18.8h-3.2c-1.9,0-3.3.6-4.6,1.7-1.1,1.1-1.7,2.6-1.7,4.6v6.5-.2ZM481.4,289c0-1.9-.6-3.3-1.7-4.6-1.1-1.1-2.6-1.7-4.6-1.7h-20.3c-1.9,0-3.5-.6-4.6-1.7s-1.7-2.6-1.7-4.6v-6.2c0-1.9.7-3.3,1.8-4.6,1.1-1.1,2.6-1.7,4.6-1.7h31.1c2.8,0,5.4.4,7.6,1.4,2.4.8,4.3,2.2,5.9,3.9s2.9,3.6,3.9,5.9c.8,2.4,1.4,4.8,1.4,7.7v49.9c0,2.8-.4,5.4-1.4,7.6-.8,2.4-2.2,4.3-3.9,5.9-1.7,1.7-3.6,2.9-5.9,3.9-2.4.8-4.8,1.4-7.7,1.4h-4.7v-62.8l.2.3Z"/>
    <path class="cls-2" d="M548.8,288.2c.7-1.1,1.1-2.1,1.1-2.8s0-1.2-.3-1.7c-.3-.4-.8-.7-1.7-.8-.7,0-1.7-.1-2.6-.1h-20.3c-1.9,0-3.3-.6-4.6-1.7-1.1-1.1-1.7-2.6-1.7-4.6v-6.2c0-1.9.6-3.3,1.7-4.6s2.6-1.7,4.6-1.7h48.7c1.9,0,3.5.3,4.7,1,1.2.6,2.1,1.5,2.6,2.6.6,1.1.7,2.5.4,4s-.8,3.2-1.8,5.1l-28.2,50.7c-1,1.8-1.2,3.2-.6,4.1.6.8,1.9,1.4,4.1,1.4h20.3c1.9,0,3.3.6,4.6,1.7,1.1,1.1,1.7,2.6,1.7,4.6v6.2c0,1.9-.6,3.3-1.7,4.6-1.1,1.1-2.6,1.7-4.6,1.7h-48.7c-1.9,0-3.5-.4-4.6-1.1s-2.1-1.8-2.6-2.9-.7-2.5-.6-4,.7-2.9,1.4-4.3l28.6-50.7v-.6h0Z"/>
    <path class="cls-2" d="M594.9,345.2v-74.9c0-1.9.6-3.3,1.7-4.6,1.1-1.1,2.6-1.7,4.6-1.7h10.9c1.9,0,3.3.6,4.6,1.7,1.1,1.1,1.7,2.6,1.7,4.6v74.9c0,1.9-.6,3.3-1.7,4.6-1.1,1.1-2.6,1.7-4.6,1.7h-10.9c-1.9,0-3.3-.6-4.6-1.7-1.1-1.1-1.7-2.6-1.7-4.6Z"/>
    <path class="cls-2" d="M633.4,232.8c0-1.9.6-3.3,1.7-4.6,1.1-1.1,2.6-1.7,4.6-1.7h10.9c1.9,0,3.3.6,4.6,1.7,1.1,1.1,1.7,2.6,1.7,4.6v93.8c0,1.9.6,3.3,1.7,4.6,1.1,1.1,2.6,1.7,4.6,1.7h3.2c1.9,0,3.3.6,4.6,1.7,1.1,1.1,1.7,2.6,1.7,4.6v6.2c0,1.9-.6,3.3-1.7,4.6-1.1,1.1-2.6,1.7-4.6,1.7h-14.1c-2.8,0-5.4-.4-7.6-1.4-2.4-.8-4.3-2.2-5.9-3.9-1.7-1.7-2.9-3.6-3.9-5.9-.8-2.4-1.4-4.8-1.4-7.6v-100h0-.2Z"/>
    <path class="cls-2" d="M683,345.2v-74.9c0-1.9.6-3.3,1.7-4.6,1.1-1.1,2.6-1.7,4.6-1.7h10.9c1.9,0,3.3.6,4.6,1.7,1.1,1.1,1.7,2.6,1.7,4.6v74.9c0,1.9-.6,3.3-1.7,4.6-1.1,1.1-2.6,1.7-4.6,1.7h-10.9c-1.9,0-3.3-.6-4.6-1.7-1.1-1.1-1.7-2.6-1.7-4.6Z"/>
    <path class="cls-2" d="M721.5,270.2c0-1.9.6-3.3,1.7-4.6,1.1-1.1,2.6-1.7,4.6-1.7h25c1.4,0,2.6,0,4,.3s2.8.6,4,1,2.5,1,3.6,1.5c1.1.6,2.1,1.2,2.9,2.1s1.5.8,2.4,0c1.5-1.5,3.5-2.6,6.1-3.5s5.4-1.2,8.4-1.2h12.4c2.8,0,5.4.4,7.7,1.4,2.4.8,4.3,2.2,5.9,3.9s2.9,3.6,3.9,5.9c.8,2.4,1.4,4.8,1.4,7.7v62.5c0,1.9-.6,3.3-1.7,4.6-1.1,1.1-2.6,1.7-4.6,1.7h-10.9c-1.9,0-3.3-.6-4.6-1.7-1.1-1.1-1.7-2.6-1.7-4.6v-56.1c0-1.9-.6-3.3-1.7-4.6-1.1-1.1-2.6-1.7-4.6-1.7h-1.5c-1.9,0-3.3.6-4.6,1.7-1.1,1.1-1.7,2.6-1.7,4.6v56.1c0,1.9-.6,3.3-1.7,4.6-1.1,1.1-2.6,1.7-4.6,1.7h-6.2c-1.9,0-3.3-.6-4.6-1.7-1.1-1.1-1.7-2.6-1.7-4.6v-56.1c0-1.9-.6-3.3-1.7-4.6-1.1-1.1-2.6-1.7-4.6-1.7h-1.5c-1.9,0-3.3.6-4.6,1.7-1.1,1.1-1.7,2.6-1.7,4.6v56.1c0,1.9-.6,3.3-1.7,4.6-1.1,1.1-2.6,1.7-4.6,1.7h-10.9c-1.9,0-3.3-.6-4.6-1.7-1.1-1.1-1.7-2.6-1.7-4.6v-74.9l-.7-.4h.7Z"/>
  </g>
  <g>
    <path class="cls-2" d="M84.4,269.1s4-2.4,10.5-2.1,9,1.8,9,1.8l12.7,38.7-11.5,40.5-20.7-79h0Z"/>
    <path class="cls-2" d="M131.4,268.8s2.5-2.4,10-1.8,10,2.5,10,2.5l-24.6,95.3-1.9,5.3s-8.7,17.8-22.7,16.5c-14-1.4-17.7-7.3-17.7-7.3,0,0-1.2-3.9-1.2-9.3s1.2-6.5,1.2-6.5c0,0,8,5.7,13.1,5.7s7.9-8,16.7-37.5c8.8-29.3,17.1-62.9,17.1-62.9h0Z"/>
  </g>
  <g>
    <path class="cls-2" d="M366.8,266.8s4-2.4,10.5-2.1,9,1.8,9,1.8l12.7,38.7-11.5,40.5-20.7-79h0Z"/>
    <path class="cls-2" d="M413.8,266.5s2.5-2.4,10-1.8,10,2.5,10,2.5l-24.6,95.3-1.9,5.3s-8.7,17.8-22.7,16.5c-14-1.4-17.7-7.3-17.7-7.3,0,0-1.2-3.9-1.2-9.3s1.2-6.5,1.2-6.5c0,0,8,5.7,13.1,5.7s7.9-8,16.7-37.5c8.8-29.3,17.1-62.9,17.1-62.9h0Z"/>
  </g>
  <path class="cls-2" d="M808.7,232.2c-6.9,0-12.6,5.7-12.6,12.6s5.7,12.6,12.6,12.6,12.6-5.7,12.6-12.6-5.7-12.6-12.6-12.6h0ZM808.7,254.7c-5.4,0-10-4.4-10-10s4.4-10,10-10,10,4.4,10,10-4.4,10-10,10Z"/>
  <path class="cls-2" d="M806.8,250h-1.5v-10.8h4.1c2.2,0,3.5,1.2,3.5,3.3s-.8,2.6-2.2,3.2l2.5,4.4h-1.7l-2.2-4.3h-2.6v4.3h.1ZM806.8,244.5h2.6c1.4,0,2.1-.7,2.1-2.1s-.8-2.1-2.2-2.1h-2.5v4h0v.2Z"/>
  <path class="cls-2" d="M84.7,319.7"/>
  <polygon class="cls-3" points="298.2 247.3 288.5 252.9 278.6 258.6 278.4 247.3 278.6 235.9 288.5 241.5 298.2 247.3"/>
  <polygon class="cls-3" points="182.3 247.3 172.5 252.9 162.7 258.6 162.6 247.3 162.7 235.9 172.5 241.5 182.3 247.3"/>
  <polygon class="cls-3" points="100.1 231.8 77.3 245.1 54 258.4 54 231.8 54 205.1 77.3 218.1 100.1 231.8"/>
</svg>