<svg xmlns="http://www.w3.org/2000/svg" xmlns:xlink="http://www.w3.org/1999/xlink" width="500" zoomAndPan="magnify" viewBox="0 0 375 374.999991" height="500" preserveAspectRatio="xMidYMid meet" version="1.0"><defs><g/><clipPath id="7ee13a67e1"><path d="M 31.511719 210.554688 L 39.050781 210.554688 L 39.050781 217.78125 L 31.511719 217.78125 Z M 31.511719 210.554688 " clip-rule="nonzero"/></clipPath><clipPath id="dbc2c0b8d4"><path d="M 75 211.496094 L 81.851562 211.496094 L 81.851562 218.988281 L 75 218.988281 Z M 75 211.496094 " clip-rule="nonzero"/></clipPath><clipPath id="1398ceed3a"><path d="M 118.398438 211.507812 L 125.667969 211.507812 L 125.667969 218.988281 L 118.398438 218.988281 Z M 118.398438 211.507812 " clip-rule="nonzero"/></clipPath><clipPath id="f11df91f1b"><path d="M 170 76.910156 L 237.90625 76.910156 L 237.90625 193.160156 L 170 193.160156 Z M 170 76.910156 " clip-rule="nonzero"/></clipPath><clipPath id="c80dc6adf7"><path d="M 170 135 L 237.90625 135 L 237.90625 193.160156 L 170 193.160156 Z M 170 135 " clip-rule="nonzero"/></clipPath><clipPath id="55ae7c5587"><path d="M 170 144 L 227 144 L 227 193.160156 L 170 193.160156 Z M 170 144 " clip-rule="nonzero"/></clipPath><clipPath id="a5d175e808"><path d="M 124.65625 76.910156 L 193 76.910156 L 193 193.160156 L 124.65625 193.160156 Z M 124.65625 76.910156 " clip-rule="nonzero"/></clipPath><clipPath id="61c4f51fcf"><path d="M 124.65625 135 L 193 135 L 193 193.160156 L 124.65625 193.160156 Z M 124.65625 135 " clip-rule="nonzero"/></clipPath><clipPath id="32e2bc00a2"><path d="M 124.65625 144 L 182 144 L 182 193.160156 L 124.65625 193.160156 Z M 124.65625 144 " clip-rule="nonzero"/></clipPath><clipPath id="3a571434fe"><path d="M 324 211.421875 L 333.75 211.421875 L 333.75 221.171875 L 324 221.171875 Z M 324 211.421875 " clip-rule="nonzero"/></clipPath></defs><rect x="-37.5" width="450" fill="#ffffff" y="-37.499999" height="449.999989" fill-opacity="1"/><g fill="#737373" fill-opacity="1"><g transform="translate(28.620856, 258.447563)"><g><path d="M 10.140625 0 L 2.5 0 L 2.5 -34.765625 L 10.140625 -34.765625 Z M 10.140625 0 "/></g></g></g><g fill="#737373" fill-opacity="1"><g transform="translate(39.308256, 258.447563)"><g><path d="M 19.296875 14.578125 L 16.3125 8.53125 C 17.507812 8.53125 18.582031 8.160156 19.53125 7.421875 C 20.476562 6.679688 20.953125 5.503906 20.953125 3.890625 L 20.953125 -0.140625 C 18.878906 0.503906 16.984375 0.828125 15.265625 0.828125 C 11.191406 0.828125 8.054688 -0.269531 5.859375 -2.46875 C 3.660156 -4.664062 2.5625 -7.914062 2.5625 -12.21875 L 2.5625 -34.765625 L 10.203125 -34.765625 L 10.203125 -14.296875 C 10.203125 -11.378906 10.582031 -9.398438 11.34375 -8.359375 C 12.113281 -7.316406 13.421875 -6.796875 15.265625 -6.796875 C 17.304688 -6.796875 18.765625 -7.289062 19.640625 -8.28125 C 20.515625 -9.28125 20.953125 -11.285156 20.953125 -14.296875 L 20.953125 -25.1875 C 20.953125 -27.644531 21.796875 -29.898438 23.484375 -31.953125 C 25.179688 -34.015625 27.328125 -35.160156 29.921875 -35.390625 L 32.765625 -29.15625 C 31.421875 -28.832031 30.390625 -28.191406 29.671875 -27.234375 C 28.953125 -26.285156 28.59375 -25.234375 28.59375 -24.078125 L 28.59375 4.234375 C 28.59375 7.242188 27.882812 9.613281 26.46875 11.34375 C 25.0625 13.082031 22.671875 14.160156 19.296875 14.578125 Z M 19.296875 14.578125 "/></g></g></g><g fill="#737373" fill-opacity="1"><g transform="translate(72.342047, 258.447563)"><g><path d="M 10.140625 0 L 2.5 0 L 2.5 -34.765625 L 10.140625 -34.765625 Z M 10.140625 0 "/></g></g></g><g fill="#737373" fill-opacity="1"><g transform="translate(83.02945, 258.447563)"><g><path d="M 31.03125 -24.015625 L 31.03125 -10.890625 C 31.03125 -6.316406 29.222656 -3.101562 25.609375 -1.25 C 22.878906 0.132812 19.820312 0.828125 16.4375 0.828125 C 13.0625 0.828125 9.382812 0.550781 5.40625 0 L 5.40625 -48.578125 L 13.046875 -48.578125 L 13.046875 -34.703125 C 15.035156 -35.117188 16.882812 -35.328125 18.59375 -35.328125 C 21.050781 -35.328125 23.226562 -34.890625 25.125 -34.015625 C 29.0625 -32.203125 31.03125 -28.867188 31.03125 -24.015625 Z M 23.453125 -10.765625 L 23.453125 -21.859375 C 23.453125 -23.617188 22.988281 -24.984375 22.0625 -25.953125 C 21.144531 -26.929688 20.082031 -27.488281 18.875 -27.625 C 18.457031 -27.625 18.039062 -27.625 17.625 -27.625 C 16.84375 -27.625 16.101562 -27.578125 15.40625 -27.484375 C 14.300781 -27.253906 13.515625 -26.929688 13.046875 -26.515625 L 13.046875 -6.65625 C 13.835938 -6.382812 14.71875 -6.25 15.6875 -6.25 C 16.84375 -6.25 18.140625 -6.429688 19.578125 -6.796875 C 22.160156 -7.453125 23.453125 -8.773438 23.453125 -10.765625 Z M 23.453125 -10.765625 "/></g></g></g><g fill="#737373" fill-opacity="1"><g transform="translate(114.675257, 258.447563)"><g><path d="M 10.140625 0 L 2.5 0 L 2.5 -34.765625 L 10.140625 -34.765625 Z M 10.140625 0 "/></g></g></g><g fill="#737373" fill-opacity="1"><g transform="translate(125.362653, 258.447563)"><g><path d="M 11.875 0 L 4.234375 0 L 4.234375 -34.765625 L 11.3125 -34.765625 L 11.875 -34.5 C 13.394531 -35.007812 14.941406 -35.285156 16.515625 -35.328125 C 17.023438 -35.328125 17.488281 -35.328125 17.90625 -35.328125 C 18.78125 -35.328125 19.425781 -35.304688 19.84375 -35.265625 C 20.5 -35.171875 21.773438 -34.914062 23.671875 -34.5 L 21.859375 -27.0625 C 20.566406 -27.71875 19.316406 -28.046875 18.109375 -28.046875 C 17.097656 -28.046875 16.101562 -27.835938 15.125 -27.421875 C 12.957031 -26.441406 11.875 -24.75 11.875 -22.34375 Z M 11.875 0 "/></g></g></g><g fill="#737373" fill-opacity="1"><g transform="translate(149.652196, 258.447563)"><g><path d="M 19.296875 14.578125 L 16.3125 8.53125 C 17.507812 8.53125 18.582031 8.160156 19.53125 7.421875 C 20.476562 6.679688 20.953125 5.503906 20.953125 3.890625 L 20.953125 -0.140625 C 18.878906 0.503906 16.984375 0.828125 15.265625 0.828125 C 11.191406 0.828125 8.054688 -0.269531 5.859375 -2.46875 C 3.660156 -4.664062 2.5625 -7.914062 2.5625 -12.21875 L 2.5625 -34.765625 L 10.203125 -34.765625 L 10.203125 -14.296875 C 10.203125 -11.378906 10.582031 -9.398438 11.34375 -8.359375 C 12.113281 -7.316406 13.421875 -6.796875 15.265625 -6.796875 C 17.304688 -6.796875 18.765625 -7.289062 19.640625 -8.28125 C 20.515625 -9.28125 20.953125 -11.285156 20.953125 -14.296875 L 20.953125 -25.1875 C 20.953125 -27.644531 21.796875 -29.898438 23.484375 -31.953125 C 25.179688 -34.015625 27.328125 -35.160156 29.921875 -35.390625 L 32.765625 -29.15625 C 31.421875 -28.832031 30.390625 -28.191406 29.671875 -27.234375 C 28.953125 -26.285156 28.59375 -25.234375 28.59375 -24.078125 L 28.59375 4.234375 C 28.59375 7.242188 27.882812 9.613281 26.46875 11.34375 C 25.0625 13.082031 22.671875 14.160156 19.296875 14.578125 Z M 19.296875 14.578125 "/></g></g></g><g fill="#737373" fill-opacity="1"><g transform="translate(182.685984, 258.447563)"><g><path d="M 29.296875 -20.6875 L 29.296875 0 C 24.484375 0.457031 20.640625 0.6875 17.765625 0.6875 C 16.472656 0.6875 15.382812 0.644531 14.5 0.5625 C 6.914062 -0.269531 2.9375 -4.046875 2.5625 -10.765625 C 2.5625 -11.085938 2.5625 -11.410156 2.5625 -11.734375 L 2.5625 -17.484375 C 2.5625 -22.066406 4.160156 -25.144531 7.359375 -26.71875 C 8.703125 -27.457031 10.226562 -27.828125 11.9375 -27.828125 C 12.21875 -27.828125 12.472656 -27.804688 12.703125 -27.765625 C 14.734375 -27.671875 16.488281 -27.425781 17.96875 -27.03125 C 19.457031 -26.632812 20.6875 -26.160156 21.65625 -25.609375 C 21.65625 -28.566406 19.179688 -30.046875 14.234375 -30.046875 L 14.859375 -35.328125 C 16.609375 -35.328125 18.1875 -35.222656 19.59375 -35.015625 C 21.007812 -34.804688 22.203125 -34.457031 23.171875 -33.96875 C 24.148438 -33.488281 25.007812 -32.992188 25.75 -32.484375 C 26.488281 -31.972656 27.066406 -31.300781 27.484375 -30.46875 C 27.898438 -29.632812 28.242188 -28.90625 28.515625 -28.28125 C 28.796875 -27.65625 28.984375 -26.8125 29.078125 -25.75 C 29.171875 -24.6875 29.226562 -23.851562 29.25 -23.25 C 29.28125 -22.644531 29.296875 -21.789062 29.296875 -20.6875 Z M 21.65625 -6.734375 L 21.65625 -17.484375 C 20.914062 -17.992188 19.953125 -18.46875 18.765625 -18.90625 C 17.585938 -19.351562 16.328125 -19.691406 14.984375 -19.921875 C 14.617188 -19.960938 14.25 -19.984375 13.875 -19.984375 C 13.039062 -19.984375 12.300781 -19.800781 11.65625 -19.4375 C 10.726562 -18.875 10.265625 -17.898438 10.265625 -16.515625 L 10.265625 -12.703125 C 10.265625 -8.441406 12.71875 -6.3125 17.625 -6.3125 C 18.832031 -6.3125 20.175781 -6.453125 21.65625 -6.734375 Z M 21.65625 -6.734375 "/></g></g></g><g fill="#737373" fill-opacity="1"><g transform="translate(212.388619, 258.447563)"><g><path d="M 30.890625 0 L 5.40625 0 L 5.40625 -7.21875 L 19.921875 -27.546875 L 6.03125 -27.546875 L 6.03125 -34.765625 L 30.1875 -34.765625 L 30.1875 -27.828125 L 15.609375 -7.21875 L 30.890625 -7.21875 Z M 30.890625 0 "/></g></g></g><g fill="#737373" fill-opacity="1"><g transform="translate(243.895629, 258.447563)"><g><path d="M 10.140625 0 L 2.5 0 L 2.5 -34.765625 L 10.140625 -34.765625 Z M 10.140625 0 "/></g></g></g><g fill="#737373" fill-opacity="1"><g transform="translate(254.583026, 258.447563)"><g><path d="M 13.046875 0 L 5.40625 0 L 5.40625 -48.578125 L 13.046875 -48.578125 Z M 13.046875 0 "/></g></g></g><g fill="#737373" fill-opacity="1"><g transform="translate(271.09992, 258.447563)"><g><path d="M 10.140625 0 L 2.5 0 L 2.5 -34.765625 L 10.140625 -34.765625 Z M 10.140625 0 "/></g></g></g><g fill="#737373" fill-opacity="1"><g transform="translate(281.787316, 258.447563)"><g><path d="M 48.71875 0 L 41.09375 0 L 41.09375 -21.09375 C 41.09375 -24.519531 40.421875 -26.695312 39.078125 -27.625 C 38.472656 -27.988281 37.734375 -28.171875 36.859375 -28.171875 C 35.703125 -28.171875 34.265625 -27.847656 32.546875 -27.203125 L 31.375 -26.71875 C 31.5625 -26.257812 31.65625 -25.585938 31.65625 -24.703125 L 31.65625 0 L 24.015625 0 L 24.015625 -20.890625 C 24.015625 -24.222656 22.925781 -26.421875 20.75 -27.484375 C 19.914062 -27.941406 19.015625 -28.171875 18.046875 -28.171875 C 16.515625 -28.171875 14.847656 -27.640625 13.046875 -26.578125 L 13.046875 0 L 5.40625 0 L 5.40625 -34.765625 L 12.140625 -34.765625 L 13.046875 -34.28125 C 14.296875 -34.84375 15.707031 -35.191406 17.28125 -35.328125 C 17.601562 -35.367188 17.925781 -35.390625 18.25 -35.390625 C 19.550781 -35.390625 20.894531 -35.160156 22.28125 -34.703125 C 24.039062 -34.148438 25.519531 -33.25 26.71875 -32 C 27.363281 -32.363281 28.335938 -32.867188 29.640625 -33.515625 C 32.597656 -34.722656 35.347656 -35.328125 37.890625 -35.328125 C 38.210938 -35.328125 38.539062 -35.328125 38.875 -35.328125 C 41.738281 -35.140625 44.09375 -34.023438 45.9375 -31.984375 C 47.789062 -29.953125 48.71875 -27.296875 48.71875 -24.015625 Z M 48.71875 0 "/></g></g></g><g clip-path="url(#7ee13a67e1)"><path fill="#008037" d="M 31.511719 210.554688 L 39.050781 210.554688 L 39.050781 217.78125 L 31.511719 217.78125 Z M 31.511719 210.554688 " fill-opacity="1" fill-rule="nonzero"/></g><g clip-path="url(#dbc2c0b8d4)"><path fill="#ff5757" d="M 75 211.496094 L 81.851562 211.496094 L 81.851562 218.992188 L 75 218.992188 Z M 75 211.496094 " fill-opacity="1" fill-rule="nonzero"/></g><g clip-path="url(#1398ceed3a)"><path fill="#5271ff" d="M 118.398438 211.507812 L 125.667969 211.507812 L 125.667969 218.976562 L 118.398438 218.976562 Z M 118.398438 211.507812 " fill-opacity="1" fill-rule="nonzero"/></g><g clip-path="url(#f11df91f1b)"><path fill="#e7bf0d" d="M 237.886719 135.035156 L 170.308594 76.90625 L 170.308594 100.160156 L 204.097656 135.035156 L 170.308594 169.910156 L 170.308594 193.164062 L 237.886719 135.035156 " fill-opacity="1" fill-rule="nonzero"/></g><g clip-path="url(#c80dc6adf7)"><path fill="#ac8e09" d="M 237.886719 135.035156 L 190.386719 149.1875 L 170.308594 169.910156 L 170.308594 193.164062 L 237.886719 135.035156 " fill-opacity="1" fill-rule="nonzero"/></g><g clip-path="url(#55ae7c5587)"><path fill="#e7bf0d" d="M 170.308594 169.910156 L 226.960938 144.433594 L 170.308594 193.164062 Z M 170.308594 169.910156 " fill-opacity="1" fill-rule="nonzero"/></g><g clip-path="url(#a5d175e808)"><path fill="#44b0c0" d="M 192.25 135.035156 L 124.667969 76.90625 L 124.667969 100.160156 L 158.457031 135.035156 L 124.667969 169.910156 L 124.667969 193.164062 L 192.25 135.035156 " fill-opacity="1" fill-rule="nonzero"/></g><g clip-path="url(#61c4f51fcf)"><path fill="#2b6c78" d="M 192.25 135.035156 L 144.746094 149.1875 L 124.667969 169.910156 L 124.667969 193.164062 L 192.25 135.035156 " fill-opacity="1" fill-rule="nonzero"/></g><g clip-path="url(#32e2bc00a2)"><path fill="#44b0c0" d="M 124.667969 169.910156 L 181.320312 144.433594 L 124.667969 193.164062 Z M 124.667969 169.910156 " fill-opacity="1" fill-rule="nonzero"/></g><g clip-path="url(#3a571434fe)"><path fill="#737373" d="M 329.027344 211.421875 C 326.257812 211.421875 324 213.675781 324 216.449219 C 324 219.21875 326.257812 221.476562 329.027344 221.476562 C 331.800781 221.476562 334.054688 219.21875 334.054688 216.449219 C 334.054688 213.675781 331.800781 211.421875 329.027344 211.421875 Z M 329.027344 220.382812 C 326.855469 220.382812 325.09375 218.621094 325.09375 216.449219 C 325.09375 214.273438 326.855469 212.511719 329.027344 212.511719 C 331.199219 212.511719 332.960938 214.273438 332.960938 216.449219 C 332.960938 218.621094 331.199219 220.382812 329.027344 220.382812 Z M 329.027344 220.382812 " fill-opacity="1" fill-rule="nonzero"/></g><path fill="#737373" d="M 328.277344 218.503906 L 327.691406 218.503906 L 327.691406 214.191406 L 329.359375 214.191406 C 330.207031 214.191406 330.757812 214.703125 330.757812 215.492188 C 330.757812 216.085938 330.4375 216.554688 329.902344 216.730469 L 330.882812 218.503906 L 330.199219 218.503906 L 329.292969 216.824219 L 328.277344 216.824219 Z M 328.277344 216.308594 L 329.300781 216.308594 C 329.839844 216.308594 330.144531 216.023438 330.144531 215.511719 C 330.144531 215.011719 329.820312 214.714844 329.28125 214.714844 L 328.277344 214.714844 Z M 328.277344 216.308594 " fill-opacity="1" fill-rule="nonzero"/><g fill="#737373" fill-opacity="1"><g transform="translate(76.639144, 292.497784)"><g><path d="M 11.21875 -3.640625 L 7.375 -3.640625 L 6.53125 0 L 5.46875 0 L 6.3125 -3.640625 L 4.03125 -3.640625 L 3.171875 0 L 2.125 0 L 2.96875 -3.640625 L 0.65625 -3.640625 L 0.65625 -4.71875 L 3.21875 -4.71875 L 3.984375 -7.953125 L 0.65625 -7.953125 L 0.65625 -9.03125 L 4.234375 -9.03125 L 5.28125 -13.484375 L 6.34375 -13.484375 L 5.296875 -9.03125 L 7.59375 -9.03125 L 8.625 -13.484375 L 9.6875 -13.484375 L 8.65625 -9.03125 L 11.21875 -9.03125 L 11.21875 -7.953125 L 8.40625 -7.953125 L 7.625 -4.71875 L 11.21875 -4.71875 Z M 6.5625 -4.71875 L 7.34375 -7.953125 L 5.046875 -7.953125 L 4.28125 -4.71875 Z M 6.5625 -4.71875 "/></g></g></g><g fill="#737373" fill-opacity="1"><g transform="translate(90.764794, 292.497784)"><g><path d="M 9.171875 0 L 8.375 0 L 8.109375 -0.796875 C 7.441406 -0.140625 6.523438 0.1875 5.359375 0.1875 C 4.203125 0.1875 3.226562 -0.128906 2.4375 -0.765625 C 1.644531 -1.410156 1.25 -2.367188 1.25 -3.640625 L 1.25 -9.6875 C 1.25 -11.332031 1.804688 -12.492188 2.921875 -13.171875 C 3.503906 -13.492188 4.191406 -13.65625 4.984375 -13.65625 C 5.972656 -13.65625 6.882812 -13.445312 7.71875 -13.03125 L 7.421875 -12.296875 C 6.679688 -12.566406 5.988281 -12.703125 5.34375 -12.703125 C 3.332031 -12.703125 2.328125 -11.753906 2.328125 -9.859375 L 2.328125 -3.609375 C 2.328125 -2.742188 2.601562 -2.066406 3.15625 -1.578125 C 3.71875 -1.085938 4.429688 -0.84375 5.296875 -0.84375 C 6.171875 -0.84375 6.863281 -1.09375 7.375 -1.59375 C 7.894531 -2.09375 8.15625 -2.753906 8.15625 -3.578125 L 8.15625 -4.71875 L 6.875 -4.71875 L 6.515625 -5.78125 L 9.171875 -5.78125 Z M 9.171875 0 "/></g></g></g><g fill="#737373" fill-opacity="1"><g transform="translate(103.425955, 292.497784)"><g><path d="M 3.890625 -0.71875 C 4.773438 -0.71875 5.710938 -0.976562 6.703125 -1.5 L 7.125 -0.671875 C 6.132812 -0.0664062 5.101562 0.234375 4.03125 0.234375 C 1.789062 0.234375 0.671875 -0.703125 0.671875 -2.578125 L 0.671875 -6.53125 C 0.671875 -7.570312 0.992188 -8.378906 1.640625 -8.953125 C 2.296875 -9.535156 3.15625 -9.828125 4.21875 -9.828125 C 5.28125 -9.828125 6.109375 -9.539062 6.703125 -8.96875 C 7.304688 -8.394531 7.609375 -7.601562 7.609375 -6.59375 L 7.609375 -4.078125 L 1.75 -3.75 L 1.75 -2.578125 C 1.75 -1.890625 2 -1.390625 2.5 -1.078125 C 2.882812 -0.835938 3.347656 -0.71875 3.890625 -0.71875 Z M 6.53125 -5.046875 L 6.53125 -6.71875 C 6.53125 -7.269531 6.378906 -7.722656 6.078125 -8.078125 C 5.785156 -8.429688 5.476562 -8.65625 5.15625 -8.75 C 4.84375 -8.851562 4.523438 -8.90625 4.203125 -8.90625 C 3.492188 -8.90625 2.90625 -8.710938 2.4375 -8.328125 C 1.976562 -7.941406 1.75 -7.335938 1.75 -6.515625 L 1.75 -4.8125 Z M 6.53125 -5.046875 "/></g></g></g><g fill="#737373" fill-opacity="1"><g transform="translate(114.102312, 292.497784)"><g><path d="M 2.578125 0 L 1.5 0 L 1.5 -13.484375 L 2.578125 -13.484375 Z M 2.578125 0 "/></g></g></g><g fill="#737373" fill-opacity="1"><g transform="translate(120.539323, 292.497784)"><g><path d="M 3.890625 -0.71875 C 4.773438 -0.71875 5.710938 -0.976562 6.703125 -1.5 L 7.125 -0.671875 C 6.132812 -0.0664062 5.101562 0.234375 4.03125 0.234375 C 1.789062 0.234375 0.671875 -0.703125 0.671875 -2.578125 L 0.671875 -6.53125 C 0.671875 -7.570312 0.992188 -8.378906 1.640625 -8.953125 C 2.296875 -9.535156 3.15625 -9.828125 4.21875 -9.828125 C 5.28125 -9.828125 6.109375 -9.539062 6.703125 -8.96875 C 7.304688 -8.394531 7.609375 -7.601562 7.609375 -6.59375 L 7.609375 -4.078125 L 1.75 -3.75 L 1.75 -2.578125 C 1.75 -1.890625 2 -1.390625 2.5 -1.078125 C 2.882812 -0.835938 3.347656 -0.71875 3.890625 -0.71875 Z M 6.53125 -5.046875 L 6.53125 -6.71875 C 6.53125 -7.269531 6.378906 -7.722656 6.078125 -8.078125 C 5.785156 -8.429688 5.476562 -8.65625 5.15625 -8.75 C 4.84375 -8.851562 4.523438 -8.90625 4.203125 -8.90625 C 3.492188 -8.90625 2.90625 -8.710938 2.4375 -8.328125 C 1.976562 -7.941406 1.75 -7.335938 1.75 -6.515625 L 1.75 -4.8125 Z M 6.53125 -5.046875 "/></g></g></g><g fill="#737373" fill-opacity="1"><g transform="translate(131.215678, 292.497784)"><g><path d="M 4.734375 -0.734375 C 5.316406 -0.734375 5.960938 -0.816406 6.671875 -0.984375 L 6.890625 -0.109375 C 6.078125 0.109375 5.332031 0.21875 4.65625 0.21875 C 3.988281 0.21875 3.335938 0.113281 2.703125 -0.09375 C 1.359375 -0.53125 0.6875 -1.65625 0.6875 -3.46875 L 0.6875 -5.9375 C 0.6875 -6.84375 0.867188 -7.601562 1.234375 -8.21875 C 1.847656 -9.289062 2.863281 -9.828125 4.28125 -9.828125 C 5.125 -9.828125 5.984375 -9.617188 6.859375 -9.203125 L 6.546875 -8.421875 C 5.816406 -8.703125 5.1875 -8.84375 4.65625 -8.84375 C 4.125 -8.84375 3.648438 -8.773438 3.234375 -8.640625 C 2.828125 -8.515625 2.476562 -8.226562 2.1875 -7.78125 C 1.90625 -7.332031 1.765625 -6.753906 1.765625 -6.046875 L 1.765625 -3.25 C 1.765625 -1.570312 2.753906 -0.734375 4.734375 -0.734375 Z M 4.734375 -0.734375 "/></g></g></g><g fill="#737373" fill-opacity="1"><g transform="translate(140.909295, 292.497784)"><g><path d="M 3.890625 -0.71875 C 4.773438 -0.71875 5.710938 -0.976562 6.703125 -1.5 L 7.125 -0.671875 C 6.132812 -0.0664062 5.101562 0.234375 4.03125 0.234375 C 1.789062 0.234375 0.671875 -0.703125 0.671875 -2.578125 L 0.671875 -6.53125 C 0.671875 -7.570312 0.992188 -8.378906 1.640625 -8.953125 C 2.296875 -9.535156 3.15625 -9.828125 4.21875 -9.828125 C 5.28125 -9.828125 6.109375 -9.539062 6.703125 -8.96875 C 7.304688 -8.394531 7.609375 -7.601562 7.609375 -6.59375 L 7.609375 -4.078125 L 1.75 -3.75 L 1.75 -2.578125 C 1.75 -1.890625 2 -1.390625 2.5 -1.078125 C 2.882812 -0.835938 3.347656 -0.71875 3.890625 -0.71875 Z M 6.53125 -5.046875 L 6.53125 -6.71875 C 6.53125 -7.269531 6.378906 -7.722656 6.078125 -8.078125 C 5.785156 -8.429688 5.476562 -8.65625 5.15625 -8.75 C 4.84375 -8.851562 4.523438 -8.90625 4.203125 -8.90625 C 3.492188 -8.90625 2.90625 -8.710938 2.4375 -8.328125 C 1.976562 -7.941406 1.75 -7.335938 1.75 -6.515625 L 1.75 -4.8125 Z M 6.53125 -5.046875 "/></g></g></g><g fill="#737373" fill-opacity="1"><g transform="translate(151.58565, 292.497784)"><g><path d="M 7.609375 -12.515625 L 7.609375 -12.421875 C 7.609375 -11.816406 7.390625 -11.300781 6.953125 -10.875 C 6.523438 -10.457031 6.015625 -10.25 5.421875 -10.25 C 4.835938 -10.25 4.328125 -10.457031 3.890625 -10.875 C 3.460938 -11.300781 3.25 -11.816406 3.25 -12.421875 L 3.25 -12.515625 L 4.125 -12.515625 L 4.125 -12.421875 C 4.125 -12.054688 4.25 -11.742188 4.5 -11.484375 C 4.757812 -11.234375 5.066406 -11.109375 5.421875 -11.109375 C 5.785156 -11.109375 6.097656 -11.234375 6.359375 -11.484375 C 6.617188 -11.742188 6.75 -12.054688 6.75 -12.421875 L 6.75 -12.515625 Z M 6.703125 4.046875 L 6.421875 3.21875 C 7.265625 2.894531 7.6875 2.226562 7.6875 1.21875 L 7.6875 -1.171875 C 7.144531 -0.234375 6.289062 0.234375 5.125 0.234375 C 3.96875 0.234375 3.070312 -0.0703125 2.4375 -0.6875 C 1.8125 -1.3125 1.5 -2.210938 1.5 -3.390625 L 1.5 -6.265625 C 1.5 -7.390625 1.828125 -8.265625 2.484375 -8.890625 C 3.148438 -9.515625 4.0625 -9.828125 5.21875 -9.828125 C 6.375 -9.828125 7.222656 -9.394531 7.765625 -8.53125 L 7.6875 -9.65625 L 8.765625 -9.65625 L 8.765625 1.234375 C 8.765625 2.003906 8.601562 2.609375 8.28125 3.046875 C 7.957031 3.484375 7.429688 3.816406 6.703125 4.046875 Z M 7.6875 -3.328125 L 7.6875 -6.46875 C 7.6875 -7.269531 7.425781 -7.863281 6.90625 -8.25 C 6.394531 -8.644531 5.789062 -8.84375 5.09375 -8.84375 C 4.40625 -8.84375 3.8125 -8.632812 3.3125 -8.21875 C 2.820312 -7.800781 2.578125 -7.117188 2.578125 -6.171875 L 2.578125 -3.21875 C 2.578125 -2.40625 2.804688 -1.789062 3.265625 -1.375 C 3.722656 -0.96875 4.320312 -0.765625 5.0625 -0.765625 C 5.800781 -0.765625 6.421875 -0.984375 6.921875 -1.421875 C 7.429688 -1.867188 7.6875 -2.503906 7.6875 -3.328125 Z M 7.6875 -3.328125 "/></g></g></g><g fill="#737373" fill-opacity="1"><g transform="translate(163.302588, 292.497784)"><g><path d="M 3.890625 -0.71875 C 4.773438 -0.71875 5.710938 -0.976562 6.703125 -1.5 L 7.125 -0.671875 C 6.132812 -0.0664062 5.101562 0.234375 4.03125 0.234375 C 1.789062 0.234375 0.671875 -0.703125 0.671875 -2.578125 L 0.671875 -6.53125 C 0.671875 -7.570312 0.992188 -8.378906 1.640625 -8.953125 C 2.296875 -9.535156 3.15625 -9.828125 4.21875 -9.828125 C 5.28125 -9.828125 6.109375 -9.539062 6.703125 -8.96875 C 7.304688 -8.394531 7.609375 -7.601562 7.609375 -6.59375 L 7.609375 -4.078125 L 1.75 -3.75 L 1.75 -2.578125 C 1.75 -1.890625 2 -1.390625 2.5 -1.078125 C 2.882812 -0.835938 3.347656 -0.71875 3.890625 -0.71875 Z M 6.53125 -5.046875 L 6.53125 -6.71875 C 6.53125 -7.269531 6.378906 -7.722656 6.078125 -8.078125 C 5.785156 -8.429688 5.476562 -8.65625 5.15625 -8.75 C 4.84375 -8.851562 4.523438 -8.90625 4.203125 -8.90625 C 3.492188 -8.90625 2.90625 -8.710938 2.4375 -8.328125 C 1.976562 -7.941406 1.75 -7.335938 1.75 -6.515625 L 1.75 -4.8125 Z M 6.53125 -5.046875 "/></g></g></g><g fill="#737373" fill-opacity="1"><g transform="translate(173.978943, 292.497784)"><g><path d="M 2.796875 -13.03125 C 2.796875 -12.851562 2.726562 -12.703125 2.59375 -12.578125 C 2.46875 -12.453125 2.316406 -12.390625 2.140625 -12.390625 C 1.972656 -12.390625 1.820312 -12.457031 1.6875 -12.59375 C 1.5625 -12.726562 1.5 -12.878906 1.5 -13.046875 C 1.5 -13.210938 1.5625 -13.359375 1.6875 -13.484375 C 1.820312 -13.609375 1.976562 -13.671875 2.15625 -13.671875 C 2.332031 -13.671875 2.484375 -13.609375 2.609375 -13.484375 C 2.734375 -13.359375 2.796875 -13.207031 2.796875 -13.03125 Z M 2.671875 0 L 1.59375 0 L 1.59375 -9.65625 L 2.671875 -9.65625 Z M 2.671875 0 "/></g></g></g><g fill="#737373" fill-opacity="1"><g transform="translate(180.627915, 292.497784)"><g><path d="M 5.921875 4.046875 L 5.625 3.21875 C 6.488281 2.894531 6.921875 2.226562 6.921875 1.21875 L 6.921875 -0.9375 C 6.441406 -0.15625 5.59375 0.234375 4.375 0.234375 C 1.9375 0.234375 0.71875 -0.972656 0.71875 -3.390625 L 0.71875 -9.65625 L 1.75 -9.65625 L 1.75 -3.203125 C 1.75 -2.378906 1.972656 -1.765625 2.421875 -1.359375 C 2.878906 -0.953125 3.492188 -0.75 4.265625 -0.75 C 5.046875 -0.75 5.675781 -0.945312 6.15625 -1.34375 C 6.644531 -1.75 6.890625 -2.367188 6.890625 -3.203125 L 6.890625 -7 C 6.890625 -7.9375 6.957031 -8.554688 7.09375 -8.859375 C 7.3125 -9.304688 7.710938 -9.628906 8.296875 -9.828125 L 8.59375 -9.09375 C 8.15625 -8.894531 7.9375 -8.445312 7.9375 -7.75 L 7.9375 1.171875 C 7.9375 1.953125 7.78125 2.566406 7.46875 3.015625 C 7.164062 3.472656 6.648438 3.816406 5.921875 4.046875 Z M 5.921875 4.046875 "/></g></g></g><g fill="#737373" fill-opacity="1"><g transform="translate(192.19069, 292.497784)"><g><path d="M 2.796875 -13.03125 C 2.796875 -12.851562 2.726562 -12.703125 2.59375 -12.578125 C 2.46875 -12.453125 2.316406 -12.390625 2.140625 -12.390625 C 1.972656 -12.390625 1.820312 -12.457031 1.6875 -12.59375 C 1.5625 -12.726562 1.5 -12.878906 1.5 -13.046875 C 1.5 -13.210938 1.5625 -13.359375 1.6875 -13.484375 C 1.820312 -13.609375 1.976562 -13.671875 2.15625 -13.671875 C 2.332031 -13.671875 2.484375 -13.609375 2.609375 -13.484375 C 2.734375 -13.359375 2.796875 -13.207031 2.796875 -13.03125 Z M 2.671875 0 L 1.59375 0 L 1.59375 -9.65625 L 2.671875 -9.65625 Z M 2.671875 0 "/></g></g></g><g fill="#737373" fill-opacity="1"><g transform="translate(198.839661, 292.497784)"><g><path d="M 2.578125 -9.125 C 3.210938 -9.582031 4.0625 -9.8125 5.125 -9.8125 C 5.832031 -9.8125 6.445312 -9.6875 6.96875 -9.4375 C 8.0625 -8.9375 8.609375 -8.015625 8.609375 -6.671875 L 8.609375 -3.03125 C 8.609375 -1.757812 8.109375 -0.863281 7.109375 -0.34375 C 6.347656 0.0390625 5.5 0.234375 4.5625 0.234375 C 3.625 0.234375 2.601562 0.15625 1.5 0 L 1.5 -13.484375 L 2.578125 -13.484375 Z M 2.578125 -8.1875 L 2.578125 -0.921875 C 3.296875 -0.804688 3.945312 -0.75 4.53125 -0.75 C 6.539062 -0.75 7.546875 -1.5 7.546875 -3 L 7.546875 -6.609375 C 7.546875 -7.273438 7.367188 -7.796875 7.015625 -8.171875 C 6.578125 -8.617188 5.921875 -8.84375 5.046875 -8.84375 C 4.179688 -8.84375 3.359375 -8.625 2.578125 -8.1875 Z M 2.578125 -8.1875 "/></g></g></g><g fill="#737373" fill-opacity="1"><g transform="translate(210.402436, 292.497784)"><g><path d="M 2.796875 -13.03125 C 2.796875 -12.851562 2.726562 -12.703125 2.59375 -12.578125 C 2.46875 -12.453125 2.316406 -12.390625 2.140625 -12.390625 C 1.972656 -12.390625 1.820312 -12.457031 1.6875 -12.59375 C 1.5625 -12.726562 1.5 -12.878906 1.5 -13.046875 C 1.5 -13.210938 1.5625 -13.359375 1.6875 -13.484375 C 1.820312 -13.609375 1.976562 -13.671875 2.15625 -13.671875 C 2.332031 -13.671875 2.484375 -13.609375 2.609375 -13.484375 C 2.734375 -13.359375 2.796875 -13.207031 2.796875 -13.03125 Z M 2.671875 0 L 1.59375 0 L 1.59375 -9.65625 L 2.671875 -9.65625 Z M 2.671875 0 "/></g></g></g><g fill="#737373" fill-opacity="1"><g transform="translate(217.051408, 292.497784)"><g><path d="M 5.703125 -8.671875 C 5.210938 -8.796875 4.71875 -8.859375 4.21875 -8.859375 C 3.71875 -8.859375 3.265625 -8.742188 2.859375 -8.515625 C 2.453125 -8.296875 2.25 -7.972656 2.25 -7.546875 L 2.25 0 L 1.171875 0 L 1.171875 -9.65625 L 2.25 -9.65625 L 2.203125 -8.984375 C 2.804688 -9.535156 3.597656 -9.8125 4.578125 -9.8125 C 5.015625 -9.8125 5.484375 -9.757812 5.984375 -9.65625 Z M 5.703125 -8.671875 "/></g></g></g><g fill="#737373" fill-opacity="1"><g transform="translate(225.781523, 292.497784)"><g><path d="M 4.9375 0.1875 C 2.125 0.1875 0.71875 -0.957031 0.71875 -3.25 L 0.71875 -4.859375 C 0.71875 -6.128906 1.160156 -6.984375 2.046875 -7.421875 C 2.503906 -7.640625 2.957031 -7.75 3.40625 -7.75 C 4.925781 -7.75 6.140625 -7.390625 7.046875 -6.671875 C 7.046875 -7.367188 6.835938 -7.925781 6.421875 -8.34375 C 6.015625 -8.769531 5.226562 -8.984375 4.0625 -8.984375 L 4.125 -9.8125 C 5.164062 -9.8125 5.9375 -9.6875 6.4375 -9.4375 C 6.707031 -9.300781 6.941406 -9.160156 7.140625 -9.015625 C 7.347656 -8.867188 7.507812 -8.679688 7.625 -8.453125 C 7.738281 -8.222656 7.832031 -8.019531 7.90625 -7.84375 C 7.988281 -7.675781 8.046875 -7.441406 8.078125 -7.140625 C 8.109375 -6.691406 8.125 -6.222656 8.125 -5.734375 L 8.125 0 C 6.789062 0.125 5.726562 0.1875 4.9375 0.1875 Z M 7.046875 -0.890625 L 7.046875 -5.84375 C 5.984375 -6.351562 4.894531 -6.65625 3.78125 -6.75 C 3.695312 -6.757812 3.617188 -6.765625 3.546875 -6.765625 C 3.054688 -6.765625 2.632812 -6.613281 2.28125 -6.3125 C 1.9375 -6.007812 1.765625 -5.503906 1.765625 -4.796875 L 1.765625 -3.125 C 1.765625 -2.050781 2.226562 -1.359375 3.15625 -1.046875 C 3.695312 -0.847656 4.304688 -0.75 4.984375 -0.75 C 5.671875 -0.75 6.359375 -0.796875 7.046875 -0.890625 Z M 7.046875 -0.890625 "/></g></g></g><g fill="#737373" fill-opacity="1"><g transform="translate(236.92037, 292.497784)"><g><path d="M 4.984375 -9.8125 C 6.054688 -9.8125 6.90625 -9.582031 7.53125 -9.125 L 7.53125 -13.484375 L 8.609375 -13.484375 L 8.609375 0 C 7.503906 0.15625 6.484375 0.234375 5.546875 0.234375 C 4.609375 0.234375 3.757812 0.0390625 3 -0.34375 C 2 -0.863281 1.5 -1.757812 1.5 -3.03125 L 1.5 -6.671875 C 1.5 -8.015625 2.046875 -8.9375 3.140625 -9.4375 C 3.671875 -9.6875 4.285156 -9.8125 4.984375 -9.8125 Z M 7.53125 -8.1875 C 6.75 -8.625 5.894531 -8.84375 4.96875 -8.84375 C 4.15625 -8.84375 3.550781 -8.632812 3.15625 -8.21875 C 2.757812 -7.8125 2.5625 -7.273438 2.5625 -6.609375 L 2.5625 -3 C 2.5625 -1.5 3.570312 -0.75 5.59375 -0.75 C 6.164062 -0.75 6.8125 -0.804688 7.53125 -0.921875 Z M 7.53125 -8.1875 "/></g></g></g><g fill="#737373" fill-opacity="1"><g transform="translate(248.483144, 292.497784)"><g><path d="M 1.765625 0 L 0.6875 0 L 0.6875 -9.65625 L 1.765625 -9.65625 Z M 1.765625 0 "/></g></g></g><g fill="#737373" fill-opacity="1"><g transform="translate(253.301499, 292.497784)"><g><path d="M 7.421875 -8.875 C 8.515625 -9.5 9.546875 -9.8125 10.515625 -9.8125 C 11.441406 -9.8125 12.175781 -9.515625 12.71875 -8.921875 C 13.257812 -8.328125 13.53125 -7.578125 13.53125 -6.671875 L 13.53125 0 L 12.46875 0 L 12.46875 -6.609375 C 12.46875 -7.179688 12.34375 -7.644531 12.09375 -8 C 11.851562 -8.363281 11.554688 -8.59375 11.203125 -8.6875 C 10.859375 -8.78125 10.582031 -8.828125 10.375 -8.828125 C 10.164062 -8.828125 9.925781 -8.816406 9.65625 -8.796875 C 9.394531 -8.773438 9.046875 -8.679688 8.609375 -8.515625 L 7.90625 -8.171875 C 8.113281 -7.734375 8.21875 -7.234375 8.21875 -6.671875 L 8.21875 0 L 7.171875 0 L 7.171875 -6.609375 C 7.171875 -7.273438 7.007812 -7.796875 6.6875 -8.171875 C 6.300781 -8.609375 5.710938 -8.828125 4.921875 -8.828125 C 4.128906 -8.828125 3.347656 -8.613281 2.578125 -8.1875 L 2.578125 0 L 1.5 0 L 1.5 -9.65625 L 2.578125 -9.65625 L 2.484375 -9.03125 C 3.367188 -9.53125 4.265625 -9.78125 5.171875 -9.78125 C 6.078125 -9.78125 6.828125 -9.476562 7.421875 -8.875 Z M 7.421875 -8.875 "/></g></g></g></svg>