<?xml version="1.0" encoding="UTF-8"?>
<svg id="Layer_1" data-name="Layer 1" xmlns="http://www.w3.org/2000/svg" xmlns:xlink="http://www.w3.org/1999/xlink" version="1.1" viewBox="0 0 595.3 841.9">
  <defs>
    <style>
      .cls-1 {
        fill: none;
      }

      .cls-1, .cls-2, .cls-3, .cls-4, .cls-5, .cls-6, .cls-7, .cls-8, .cls-9 {
        stroke-width: 0px;
      }

      .cls-2 {
        fill: url(#linear-gradient);
      }

      .cls-10 {
        fill: url(#linear-gradient-15);
        stroke: url(#linear-gradient-16);
      }

      .cls-10, .cls-11, .cls-12, .cls-13, .cls-14, .cls-15, .cls-16, .cls-17 {
        stroke-miterlimit: 10;
      }

      .cls-10, .cls-11, .cls-12, .cls-13, .cls-15, .cls-16, .cls-17 {
        stroke-width: .2px;
      }

      .cls-11 {
        fill: url(#linear-gradient-11);
        stroke: url(#linear-gradient-12);
      }

      .cls-12 {
        fill: #43b0c0;
      }

      .cls-12, .cls-15, .cls-16, .cls-17 {
        stroke: #306e7a;
      }

      .cls-3 {
        fill: url(#linear-gradient-17);
      }

      .cls-4 {
        fill: url(#linear-gradient-18);
      }

      .cls-13 {
        fill: url(#linear-gradient-9);
        stroke: url(#linear-gradient-10);
      }

      .cls-5 {
        fill: url(#linear-gradient-2);
      }

      .cls-6 {
        fill: url(#linear-gradient-8);
      }

      .cls-7 {
        fill: url(#linear-gradient-7);
      }

      .cls-8 {
        fill: url(#linear-gradient-6);
      }

      .cls-14 {
        fill: url(#linear-gradient-13);
        stroke: url(#linear-gradient-14);
        stroke-width: .5px;
      }

      .cls-15 {
        fill: url(#linear-gradient-4);
      }

      .cls-16 {
        fill: url(#linear-gradient-5);
      }

      .cls-17 {
        fill: url(#linear-gradient-3);
      }

      .cls-9 {
        fill: #e6bf20;
      }
    </style>
    <linearGradient id="linear-gradient" x1="60.7" y1="357.6" x2="359.9" y2="357.6" gradientTransform="translate(0 841.9) scale(1 -1)" gradientUnits="userSpaceOnUse">
      <stop offset="0" stop-color="#43b0c0"/>
      <stop offset=".3" stop-color="#43b0c0"/>
      <stop offset=".6" stop-color="#42adbd"/>
      <stop offset="1" stop-color="#2e6e7a"/>
    </linearGradient>
    <linearGradient id="linear-gradient-2" x1="83.5" y1="613.3" x2="32.2" y2="664.6" gradientTransform="translate(0 841.9) scale(1 -1)" gradientUnits="userSpaceOnUse">
      <stop offset="0" stop-color="#2e6e7a"/>
      <stop offset=".5" stop-color="#43b0c0"/>
    </linearGradient>
    <linearGradient id="linear-gradient-3" x1="33.6" y1="521.9" x2="209.5" y2="521.9" gradientTransform="translate(0 841.9) scale(1 -1)" gradientUnits="userSpaceOnUse">
      <stop offset="0" stop-color="#43b0c0"/>
      <stop offset="1" stop-color="#2e6e7a"/>
    </linearGradient>
    <linearGradient id="linear-gradient-4" x1="47" y1="362.3" x2="209.5" y2="362.3" gradientTransform="translate(0 841.9) scale(1 -1)" gradientUnits="userSpaceOnUse">
      <stop offset="0" stop-color="#43b0c0"/>
      <stop offset=".4" stop-color="#30737f"/>
      <stop offset=".6" stop-color="#2e6e7a"/>
    </linearGradient>
    <linearGradient id="linear-gradient-5" x1="90" y1="207.1" x2="17.7" y2="279.2" gradientTransform="translate(0 841.9) scale(1 -1)" gradientUnits="userSpaceOnUse">
      <stop offset="0" stop-color="#43b0c0"/>
      <stop offset="1" stop-color="#2e6e7a"/>
    </linearGradient>
    <linearGradient id="linear-gradient-6" x1="252.5" y1="436.5" x2="252.5" y2="369.2" gradientTransform="translate(0 841.9) scale(1 -1)" gradientUnits="userSpaceOnUse">
      <stop offset="0" stop-color="#43b0c0"/>
      <stop offset=".3" stop-color="#43b0c0"/>
      <stop offset=".6" stop-color="#42adbd"/>
      <stop offset="1" stop-color="#2e6e7a"/>
    </linearGradient>
    <linearGradient id="linear-gradient-7" x1="481.2" y1="56.5" x2="160.1" y2="-1.1" gradientTransform="translate(-86.8 728.9) rotate(-39.3) scale(1 .9)" gradientUnits="userSpaceOnUse">
      <stop offset="0" stop-color="#43b0c0"/>
      <stop offset=".3" stop-color="#43b0c0"/>
      <stop offset=".6" stop-color="#42adbd"/>
      <stop offset="1" stop-color="#2e6e7a"/>
    </linearGradient>
    <linearGradient id="linear-gradient-8" x1="262.5" y1="356.7" x2="561.7" y2="356.7" gradientTransform="translate(0 841.9) scale(1 -1)" gradientUnits="userSpaceOnUse">
      <stop offset="0" stop-color="#e6bf20"/>
      <stop offset=".3" stop-color="#e4be21"/>
      <stop offset="1" stop-color="#ab8f30"/>
    </linearGradient>
    <linearGradient id="linear-gradient-9" x1="285.3" y1="612.5" x2="234" y2="663.7" gradientTransform="translate(0 841.9) scale(1 -1)" gradientUnits="userSpaceOnUse">
      <stop offset="0" stop-color="#ab8f30"/>
      <stop offset=".8" stop-color="#e6bf20"/>
    </linearGradient>
    <linearGradient id="linear-gradient-10" x1="235.3" y1="640.4" x2="262.1" y2="640.4" gradientTransform="translate(0 841.9) scale(1 -1)" gradientUnits="userSpaceOnUse">
      <stop offset="0" stop-color="#e6bf20"/>
      <stop offset="0" stop-color="#ad9130"/>
      <stop offset="1" stop-color="#ab8f30"/>
    </linearGradient>
    <linearGradient id="linear-gradient-11" x1="235.4" y1="521.1" x2="411.2" y2="521.1" gradientTransform="translate(0 841.9) scale(1 -1)" gradientUnits="userSpaceOnUse">
      <stop offset="0" stop-color="#e6bf20"/>
      <stop offset="1" stop-color="#ab8f30"/>
    </linearGradient>
    <linearGradient id="linear-gradient-12" x1="235.3" y1="521.1" x2="411.3" y2="521.1" gradientTransform="translate(0 841.9) scale(1 -1)" gradientUnits="userSpaceOnUse">
      <stop offset="0" stop-color="#e6bf20"/>
      <stop offset="0" stop-color="#ad9130"/>
      <stop offset="1" stop-color="#ab8f30"/>
    </linearGradient>
    <linearGradient id="linear-gradient-13" x1="248.7" y1="361.3" x2="411.2" y2="361.3" gradientTransform="translate(0 841.9) scale(1 -1)" gradientUnits="userSpaceOnUse">
      <stop offset="0" stop-color="#e6bf20"/>
      <stop offset=".4" stop-color="#ab8f30"/>
    </linearGradient>
    <linearGradient id="linear-gradient-14" x1="248.4" y1="361.4" x2="411.8" y2="361.4" gradientTransform="translate(0 841.9) scale(1 -1)" gradientUnits="userSpaceOnUse">
      <stop offset="0" stop-color="#ab8f30"/>
      <stop offset="1" stop-color="#aa9231"/>
    </linearGradient>
    <linearGradient id="linear-gradient-15" x1="291.6" y1="206.1" x2="219.3" y2="278.4" gradientTransform="translate(0 841.9) scale(1 -1)" gradientUnits="userSpaceOnUse">
      <stop offset="0" stop-color="#e6bf20"/>
      <stop offset="1" stop-color="#ab8f30"/>
    </linearGradient>
    <linearGradient id="linear-gradient-16" x1="291.8" y1="206.1" x2="219.1" y2="278.9" gradientTransform="translate(0 841.9) scale(1 -1)" gradientUnits="userSpaceOnUse">
      <stop offset="0" stop-color="#aa9131"/>
      <stop offset="1" stop-color="#ab8f30"/>
    </linearGradient>
    <linearGradient id="linear-gradient-17" x1="454.3" y1="442.9" x2="454.3" y2="375.1" gradientTransform="translate(0 841.9) scale(1 -1)" gradientUnits="userSpaceOnUse">
      <stop offset=".3" stop-color="#e6bf20"/>
      <stop offset="1" stop-color="#ab8f30"/>
    </linearGradient>
    <linearGradient id="linear-gradient-18" x1="636.3" y1="199.1" x2="315.2" y2="141.6" gradientTransform="translate(-86.8 728.9) rotate(-39.3) scale(1 .9)" gradientUnits="userSpaceOnUse">
      <stop offset="0" stop-color="#e6bf20"/>
      <stop offset=".3" stop-color="#e6bf20"/>
      <stop offset=".5" stop-color="#e6bf20"/>
      <stop offset="1" stop-color="#ab8f30"/>
    </linearGradient>
  </defs>
  <path class="cls-12" d="M60.7,149.3l-.8,103.4,149.5,152.5-148.7,155.7v103c99.7-85.5,199.5-170.9,299.2-256.5h0c-99.7-86.1-199.5-172.2-299.2-258.3h0Z"/>
  <path class="cls-2" d="M145.1,472.7c72.4-20.9,142.4-44.2,214.9-65.1l-52.8,45.3-246.4,108c29.6-30.1,54.8-58.1,84.3-88.4h0Z"/>
  <polyline class="cls-5" points="33.6 234.6 33.6 234.6 60.2 149.3 59.8 201 59.5 252.5"/>
  <polygon class="cls-17" points="209.5 405.4 33.6 234.6 59.9 252.9 209.5 405.4"/>
  <path class="cls-15" d="M202.4,398.4l-155.4,134.9,13.8,27.6c3.5-3.5,148.7-155.7,148.7-155.7l-7.1-7h0Z"/>
  <polygon class="cls-16" points="47 533.4 60.6 664.1 60.7 561.1 47 533.4"/>
  <polygon class="cls-8" points="359.9 407.6 145.1 472.7 209.5 405.4 359.9 407.6"/>
  <path class="cls-7" d="M60.7,561.1l246.4-108-246.4,211.2"/>
  <path class="cls-9" d="M262.5,150.3l-.8,103.4,149.5,152.5-148.7,155.7v103c99.7-85.5,199.5-170.9,299.2-256.5h0c-99.7-86.1-199.5-172.2-299.2-258.3h0Z"/>
  <path class="cls-6" d="M346.8,473.6c72.4-20.9,142.4-44.2,214.9-65.1l-52.8,45.3-246.4,108c29.6-30.1,54.8-58.1,84.3-88.4h0Z"/>
  <polyline class="cls-13" points="235.4 235.4 235.4 235.4 262 150.3 261.6 202 261.3 253.4"/>
  <polygon class="cls-11" points="411.2 406.2 235.4 235.4 261.7 253.7 411.2 406.2"/>
  <path class="cls-14" d="M404.1,399.4l-155.4,134.9,13.8,27.6c3.5-3.5,148.7-155.7,148.7-155.7l-7.1-7h0Z"/>
  <polygon class="cls-10" points="248.7 534.3 262.4 665 262.5 561.9 248.7 534.3"/>
  <polygon class="cls-3" points="561.7 408.5 346.8 473.6 411.2 406.2 561.7 408.5"/>
  <path class="cls-4" d="M262.5,665l246.4-211.2-246.4,108"/>
  <path class="cls-1" d="M145.1,472.7"/>
</svg>