<svg xmlns="http://www.w3.org/2000/svg" xmlns:xlink="http://www.w3.org/1999/xlink" width="500" zoomAndPan="magnify" viewBox="0 0 375 374.999991" height="500" preserveAspectRatio="xMidYMid meet" version="1.0"><defs><clipPath id="88cfa6e971"><path d="M 37.5 186 L 224 186 L 224 288.796875 L 37.5 288.796875 Z M 37.5 186 " clip-rule="nonzero"/></clipPath><clipPath id="f519284387"><path d="M 183 86.296875 L 245 86.296875 L 245 264 L 183 264 Z M 183 86.296875 " clip-rule="nonzero"/></clipPath><clipPath id="bd19ece9f3"><path d="M 227 147 L 337.5 147 L 337.5 244 L 227 244 Z M 227 147 " clip-rule="nonzero"/></clipPath></defs><path fill="#44b0c0" d="M 100.402344 182.878906 C 101.042969 159.535156 101.851562 128.949219 102.15625 112.914062 C 102.210938 109.949219 102.46875 108.542969 102.640625 107.925781 C 103.339844 107.691406 105.109375 107.28125 108.894531 107.28125 C 111.691406 107.28125 115.078125 107.496094 119.246094 107.945312 C 155.898438 111.878906 156.714844 115.34375 157.742188 119.730469 C 160.070312 129.636719 169.777344 171.621094 176.222656 199.5 C 176.777344 199.53125 177.292969 199.527344 177.878906 199.582031 C 180.890625 199.859375 184.234375 199.929688 187.539062 199.976562 C 181.121094 172.207031 170.789062 127.503906 168.375 117.234375 C 165.636719 105.582031 159.308594 101.265625 120.414062 97.089844 C 95.457031 94.40625 91.496094 99.023438 91.238281 112.710938 C 90.941406 128.351562 90.171875 157.59375 89.542969 180.589844 C 93.523438 181.085938 97.195312 181.820312 100.402344 182.878906 " fill-opacity="1" fill-rule="nonzero"/><path fill="#e7bf0d" d="M 112.59375 193.328125 C 115.164062 201.925781 121.171875 216.246094 124.03125 219.675781 C 124.835938 220.503906 128.523438 222.476562 144.972656 222.476562 C 149.410156 222.476562 151.546875 221.3125 152.667969 219.6875 C 150.023438 212.441406 142.335938 214.472656 131.171875 217.054688 C 125.496094 218.367188 122.941406 200.175781 120.859375 189.960938 C 116.613281 169.09375 118.78125 151.023438 117.832031 144.753906 C 116.882812 138.484375 109.75 139.386719 106 150.589844 C 104.464844 155.175781 105.527344 170.472656 107.191406 186.132812 C 109.816406 187.980469 111.695312 190.332031 112.59375 193.328125 " fill-opacity="1" fill-rule="nonzero"/><path fill="#e7bf0d" d="M 170.851562 185.09375 C 168.765625 181.359375 160.976562 181.734375 153.460938 185.933594 C 145.949219 190.136719 141.546875 196.5625 143.632812 200.300781 C 145.117188 202.957031 149.5 203.496094 154.601562 202.09375 L 157.203125 207.511719 C 160.304688 202.761719 164.863281 200.625 169.375 199.824219 L 167.042969 194.96875 C 170.617188 191.46875 172.277344 187.652344 170.851562 185.09375 " fill-opacity="1" fill-rule="nonzero"/><path fill="#44b0c0" d="M 100.664062 252.847656 C 100.664062 262.800781 92.59375 270.871094 82.644531 270.871094 C 72.691406 270.871094 64.617188 262.800781 64.617188 252.847656 C 64.617188 242.894531 72.691406 234.828125 82.644531 234.828125 C 92.59375 234.828125 100.664062 242.894531 100.664062 252.847656 " fill-opacity="1" fill-rule="nonzero"/><g clip-path="url(#88cfa6e971)"><path fill="#44b0c0" d="M 187.824219 281.363281 C 172.101562 281.363281 159.308594 268.574219 159.308594 252.847656 C 159.308594 237.125 172.101562 224.332031 187.824219 224.332031 C 203.550781 224.332031 216.339844 237.125 216.339844 252.847656 C 216.339844 268.574219 203.550781 281.363281 187.824219 281.363281 Z M 82.644531 281.363281 C 66.917969 281.363281 54.125 268.574219 54.125 252.847656 C 54.125 237.125 66.917969 224.332031 82.644531 224.332031 C 98.363281 224.332031 111.15625 237.125 111.15625 252.847656 C 111.15625 268.574219 98.363281 281.363281 82.644531 281.363281 Z M 214.667969 229.25 C 212.582031 220.347656 208.648438 211.335938 205.796875 209.433594 C 201.242188 206.398438 187.925781 207.828125 177.207031 206.828125 C 166.488281 205.832031 162.414062 210.039062 161.0625 217.5625 C 159.710938 225.085938 154.835938 229.757812 144.972656 229.757812 C 135.105469 229.757812 122.5625 229.285156 118.4375 224.332031 C 114.3125 219.382812 107.886719 202.996094 105.621094 195.417969 C 102.691406 185.632812 71.039062 186.8125 56.707031 186.984375 C 44.867188 187.128906 40.984375 204.894531 40.5 212.496094 C 40.015625 220.09375 37.597656 247.316406 37.597656 247.316406 C 37.507812 249.84375 41.390625 251.210938 46.894531 251.945312 C 46.882812 252.25 46.847656 252.542969 46.847656 252.847656 C 46.847656 272.585938 62.90625 288.644531 82.644531 288.644531 C 99.660156 288.644531 113.921875 276.691406 117.53125 260.746094 C 126.078125 261.097656 136.574219 261.304688 149.523438 261.304688 C 150.734375 261.304688 151.886719 261.273438 153.070312 261.257812 C 156.867188 276.941406 170.988281 288.644531 187.824219 288.644531 C 207.5625 288.644531 223.617188 272.585938 223.617188 252.847656 C 223.617188 243.804688 220.222656 235.554688 214.667969 229.25 " fill-opacity="1" fill-rule="nonzero"/></g><path fill="#44b0c0" d="M 206.527344 252.847656 C 206.527344 263.179688 198.15625 271.550781 187.824219 271.550781 C 177.492188 271.550781 169.125 263.179688 169.125 252.847656 C 169.125 242.515625 177.492188 234.144531 187.824219 234.144531 C 198.15625 234.144531 206.527344 242.515625 206.527344 252.847656 " fill-opacity="1" fill-rule="nonzero"/><g clip-path="url(#f519284387)"><path fill="#44b0c0" d="M 244.660156 260.699219 L 233.585938 263.894531 L 183.25 89.523438 L 194.328125 86.328125 L 244.660156 260.699219 " fill-opacity="1" fill-rule="nonzero"/></g><path fill="#44b0c0" d="M 322.960938 230.101562 L 231.457031 256.511719 L 233.582031 263.894531 L 325.09375 237.480469 L 322.960938 230.101562 " fill-opacity="1" fill-rule="nonzero"/><g clip-path="url(#bd19ece9f3)"><path fill="#e7bf0d" d="M 337.511719 217.058594 L 247.167969 243.140625 L 227.144531 173.777344 L 317.488281 147.699219 L 337.511719 217.058594 " fill-opacity="1" fill-rule="nonzero"/></g><path fill="#e7bf0d" d="M 282.917969 150.421875 L 225.210938 167.074219 L 212.59375 123.359375 L 270.296875 106.703125 L 282.917969 150.421875 " fill-opacity="1" fill-rule="nonzero"/></svg>