<?xml version="1.0" encoding="UTF-8"?>
<svg id="Layer_1" data-name="Layer 1" xmlns="http://www.w3.org/2000/svg" xmlns:xlink="http://www.w3.org/1999/xlink" version="1.1" viewBox="0 0 595.3 841.9">
  <defs>
    <style>
      .cls-1 {
        fill: #747474;
      }

      .cls-1, .cls-2, .cls-3, .cls-4, .cls-5, .cls-6, .cls-7, .cls-8, .cls-9, .cls-10, .cls-11, .cls-12 {
        stroke-width: 0px;
      }

      .cls-2 {
        fill: none;
      }

      .cls-3 {
        fill: url(#linear-gradient);
      }

      .cls-13 {
        fill: url(#linear-gradient-15);
        stroke: url(#linear-gradient-16);
      }

      .cls-13, .cls-14, .cls-15, .cls-16, .cls-17, .cls-18, .cls-19, .cls-20 {
        stroke-miterlimit: 10;
      }

      .cls-13, .cls-14, .cls-15, .cls-16, .cls-18, .cls-19, .cls-20 {
        stroke-width: .2px;
      }

      .cls-14 {
        fill: url(#linear-gradient-11);
        stroke: url(#linear-gradient-12);
      }

      .cls-15, .cls-6 {
        fill: #43b0c0;
      }

      .cls-15, .cls-18, .cls-19, .cls-20 {
        stroke: #306e7a;
      }

      .cls-4 {
        fill: url(#linear-gradient-17);
      }

      .cls-5 {
        fill: url(#linear-gradient-18);
      }

      .cls-16 {
        fill: url(#linear-gradient-9);
        stroke: url(#linear-gradient-10);
      }

      .cls-7 {
        fill: #2d6c78;
      }

      .cls-8 {
        fill: url(#linear-gradient-2);
      }

      .cls-9 {
        fill: url(#linear-gradient-8);
      }

      .cls-10 {
        fill: url(#linear-gradient-7);
      }

      .cls-11 {
        fill: url(#linear-gradient-6);
      }

      .cls-17 {
        fill: url(#linear-gradient-13);
        stroke: url(#linear-gradient-14);
        stroke-width: .5px;
      }

      .cls-18 {
        fill: url(#linear-gradient-4);
      }

      .cls-19 {
        fill: url(#linear-gradient-5);
      }

      .cls-20 {
        fill: url(#linear-gradient-3);
      }

      .cls-12 {
        fill: #e6bf20;
      }
    </style>
    <linearGradient id="linear-gradient" x1="190.1" y1="445.5" x2="347.1" y2="445.5" gradientTransform="translate(0 841.9) scale(1 -1)" gradientUnits="userSpaceOnUse">
      <stop offset="0" stop-color="#43b0c0"/>
      <stop offset=".3" stop-color="#43b0c0"/>
      <stop offset=".6" stop-color="#42adbd"/>
      <stop offset="1" stop-color="#2e6e7a"/>
    </linearGradient>
    <linearGradient id="linear-gradient-2" x1="202" y1="579.7" x2="175.1" y2="606.7" gradientTransform="translate(0 841.9) scale(1 -1)" gradientUnits="userSpaceOnUse">
      <stop offset="0" stop-color="#2e6e7a"/>
      <stop offset=".5" stop-color="#43b0c0"/>
    </linearGradient>
    <linearGradient id="linear-gradient-3" x1="175.8" y1="531.7" x2="268.1" y2="531.7" gradientTransform="translate(0 841.9) scale(1 -1)" gradientUnits="userSpaceOnUse">
      <stop offset="0" stop-color="#43b0c0"/>
      <stop offset="1" stop-color="#2e6e7a"/>
    </linearGradient>
    <linearGradient id="linear-gradient-4" x1="182.8" y1="447.9" x2="268.1" y2="447.9" gradientTransform="translate(0 841.9) scale(1 -1)" gradientUnits="userSpaceOnUse">
      <stop offset="0" stop-color="#43b0c0"/>
      <stop offset=".4" stop-color="#30737f"/>
      <stop offset=".6" stop-color="#2e6e7a"/>
    </linearGradient>
    <linearGradient id="linear-gradient-5" x1="205.4" y1="366.4" x2="167.4" y2="404.3" gradientTransform="translate(0 841.9) scale(1 -1)" gradientUnits="userSpaceOnUse">
      <stop offset="0" stop-color="#43b0c0"/>
      <stop offset="1" stop-color="#2e6e7a"/>
    </linearGradient>
    <linearGradient id="linear-gradient-6" x1="290.7" y1="486.9" x2="290.7" y2="451.6" gradientTransform="translate(0 841.9) scale(1 -1)" gradientUnits="userSpaceOnUse">
      <stop offset="0" stop-color="#43b0c0"/>
      <stop offset=".3" stop-color="#43b0c0"/>
      <stop offset=".6" stop-color="#42adbd"/>
      <stop offset="1" stop-color="#2e6e7a"/>
    </linearGradient>
    <linearGradient id="linear-gradient-7" x1="536.2" y1="-5.4" x2="367.6" y2="-35.7" gradientTransform="translate(-86.8 728.9) rotate(-39.3) scale(1 .9)" gradientUnits="userSpaceOnUse">
      <stop offset="0" stop-color="#43b0c0"/>
      <stop offset=".3" stop-color="#43b0c0"/>
      <stop offset=".6" stop-color="#42adbd"/>
      <stop offset="1" stop-color="#2e6e7a"/>
    </linearGradient>
    <linearGradient id="linear-gradient-8" x1="296" y1="445" x2="453.1" y2="445" gradientTransform="translate(0 841.9) scale(1 -1)" gradientUnits="userSpaceOnUse">
      <stop offset="0" stop-color="#e6bf20"/>
      <stop offset=".3" stop-color="#e4be21"/>
      <stop offset="1" stop-color="#ab8f30"/>
    </linearGradient>
    <linearGradient id="linear-gradient-9" x1="308" y1="579.3" x2="281" y2="606.2" gradientTransform="translate(0 841.9) scale(1 -1)" gradientUnits="userSpaceOnUse">
      <stop offset="0" stop-color="#ab8f30"/>
      <stop offset=".8" stop-color="#e6bf20"/>
    </linearGradient>
    <linearGradient id="linear-gradient-10" x1="281.6" y1="594.1" x2="295.8" y2="594.1" gradientTransform="translate(0 841.9) scale(1 -1)" gradientUnits="userSpaceOnUse">
      <stop offset="0" stop-color="#e6bf20"/>
      <stop offset="0" stop-color="#ad9130"/>
      <stop offset="1" stop-color="#ab8f30"/>
    </linearGradient>
    <linearGradient id="linear-gradient-11" x1="281.7" y1="531.3" x2="374.1" y2="531.3" gradientTransform="translate(0 841.9) scale(1 -1)" gradientUnits="userSpaceOnUse">
      <stop offset="0" stop-color="#e6bf20"/>
      <stop offset="1" stop-color="#ab8f30"/>
    </linearGradient>
    <linearGradient id="linear-gradient-12" x1="281.7" y1="531.3" x2="374.1" y2="531.3" gradientTransform="translate(0 841.9) scale(1 -1)" gradientUnits="userSpaceOnUse">
      <stop offset="0" stop-color="#e6bf20"/>
      <stop offset="0" stop-color="#ad9130"/>
      <stop offset="1" stop-color="#ab8f30"/>
    </linearGradient>
    <linearGradient id="linear-gradient-13" x1="288.8" y1="447.4" x2="374.1" y2="447.4" gradientTransform="translate(0 841.9) scale(1 -1)" gradientUnits="userSpaceOnUse">
      <stop offset="0" stop-color="#e6bf20"/>
      <stop offset=".4" stop-color="#ab8f30"/>
    </linearGradient>
    <linearGradient id="linear-gradient-14" x1="288.5" y1="447.5" x2="374.5" y2="447.5" gradientTransform="translate(0 841.9) scale(1 -1)" gradientUnits="userSpaceOnUse">
      <stop offset="0" stop-color="#ab8f30"/>
      <stop offset="1" stop-color="#aa9231"/>
    </linearGradient>
    <linearGradient id="linear-gradient-15" x1="311.3" y1="366" x2="273.3" y2="403.9" gradientTransform="translate(0 841.9) scale(1 -1)" gradientUnits="userSpaceOnUse">
      <stop offset="0" stop-color="#e6bf20"/>
      <stop offset="1" stop-color="#ab8f30"/>
    </linearGradient>
    <linearGradient id="linear-gradient-16" x1="311.4" y1="366" x2="273" y2="404.3" gradientTransform="translate(0 841.9) scale(1 -1)" gradientUnits="userSpaceOnUse">
      <stop offset="0" stop-color="#aa9131"/>
      <stop offset="1" stop-color="#ab8f30"/>
    </linearGradient>
    <linearGradient id="linear-gradient-17" x1="396.7" y1="490.3" x2="396.7" y2="454.7" gradientTransform="translate(0 841.9) scale(1 -1)" gradientUnits="userSpaceOnUse">
      <stop offset=".3" stop-color="#e6bf20"/>
      <stop offset="1" stop-color="#ab8f30"/>
    </linearGradient>
    <linearGradient id="linear-gradient-18" x1="617.6" y1="69.4" x2="449" y2="39.2" gradientTransform="translate(-86.8 728.9) rotate(-39.3) scale(1 .9)" gradientUnits="userSpaceOnUse">
      <stop offset="0" stop-color="#e6bf20"/>
      <stop offset=".3" stop-color="#e6bf20"/>
      <stop offset=".5" stop-color="#e6bf20"/>
      <stop offset="1" stop-color="#ab8f30"/>
    </linearGradient>
  </defs>
  <path class="cls-15" d="M190.1,220.5l-.4,54.3,78.5,80.1-78.1,81.7v54.1c52.4-44.9,104.7-89.8,157.1-134.7h0c-52.4-45.2-104.7-90.4-157.1-135.6h0Z"/>
  <path class="cls-3" d="M234.3,390.3c38-11,74.8-23.2,112.8-34.2l-27.7,23.8-129.4,56.7c15.5-15.8,28.8-30.5,44.3-46.4h0Z"/>
  <polyline class="cls-8" points="175.8 265.3 175.8 265.3 189.8 220.5 189.6 247.7 189.4 274.7"/>
  <polygon class="cls-20" points="268.1 355 175.8 265.3 189.6 274.9 268.1 355"/>
  <path class="cls-18" d="M264.4,351.3l-81.6,70.8,7.2,14.5c1.9-1.9,78.1-81.7,78.1-81.7l-3.7-3.7h0Z"/>
  <polygon class="cls-19" points="182.8 422.2 190 490.8 190.1 436.7 182.8 422.2"/>
  <polygon class="cls-11" points="347.1 356.1 234.3 390.3 268.1 355 347.1 356.1"/>
  <path class="cls-10" d="M190.1,436.7l129.4-56.7-129.4,110.9"/>
  <path class="cls-12" d="M296,221l-.4,54.3,78.5,80.1-78.1,81.7v54.1c52.4-44.9,104.7-89.8,157.1-134.7h0c-52.4-45.2-104.7-90.4-157.1-135.6h0Z"/>
  <path class="cls-9" d="M340.3,390.8c38-11,74.8-23.2,112.8-34.2l-27.7,23.8-129.4,56.7c15.5-15.8,28.8-30.5,44.3-46.4h0Z"/>
  <polyline class="cls-16" points="281.7 265.7 281.7 265.7 295.7 221 295.5 248.2 295.4 275.2"/>
  <polygon class="cls-14" points="374.1 355.4 281.7 265.7 295.6 275.3 374.1 355.4"/>
  <path class="cls-17" d="M370.4,351.8l-81.6,70.8,7.2,14.5c1.9-1.9,78.1-81.7,78.1-81.7l-3.7-3.7h0Z"/>
  <polygon class="cls-13" points="288.8 422.7 295.9 491.3 296 437.1 288.8 422.7"/>
  <polygon class="cls-4" points="453.1 356.6 340.3 390.8 374.1 355.4 453.1 356.6"/>
  <path class="cls-5" d="M296,491.3l129.4-110.9-129.4,56.7"/>
  <path class="cls-2" d="M234.3,390.3"/>
  <polygon class="cls-6" points="79.2 538.3 73.2 541.8 67.1 545.3 67 538.3 67.1 531.3 73.2 534.7 79.2 538.3"/>
  <polygon class="cls-6" points="146.1 538.3 140 541.8 133.9 545.3 133.9 538.3 133.9 531.3 140 534.7 146.1 538.3"/>
  <polygon class="cls-6" points="217.6 538.3 211.6 541.8 205.5 545.3 205.4 538.3 205.5 531.3 211.6 534.7 217.6 538.3"/>
  <g>
    <path class="cls-7" d="M61.2,598.7v-46.3c0-1.2.4-2.1,1.1-2.8s1.6-1.1,2.8-1.1h6.7c1.2,0,2.1.4,2.8,1.1.7.7,1.1,1.6,1.1,2.8v46.3c0,1.2-.4,2.1-1.1,2.8s-1.6,1.1-2.8,1.1h-6.7c-1.2,0-2.1-.4-2.8-1.1-.7-.7-1.1-1.6-1.1-2.8Z"/>
    <path class="cls-7" d="M127.4,598.7v-46.3c0-1.2.4-2.1,1.1-2.8s1.6-1.1,2.8-1.1h6.7c1.2,0,2.1.4,2.8,1.1.7.7,1.1,1.6,1.1,2.8v46.3c0,1.2-.4,2.1-1.1,2.8-.7.7-1.6,1.1-2.8,1.1h-6.7c-1.2,0-2.1-.4-2.8-1.1-.7-.7-1.1-1.6-1.1-2.8Z"/>
    <path class="cls-7" d="M165.6,602.6h-10.6c-1.2,0-2.1-.4-2.8-1.1-.7-.7-1.1-1.6-1.1-2.8v-69.4c0-1.2.4-2.1,1.1-2.8.7-.7,1.6-1.1,2.8-1.1h6.7c1.2,0,2.1.4,2.8,1.1.7.7,1.1,1.6,1.1,2.8v73.2h0ZM169.5,591h1.9c1.2,0,2.1-.4,2.8-1.1.7-.7,1.1-1.6,1.1-2.8v-23.1c0-1.2-.4-2.1-1.1-2.8-.7-.7-1.6-1.1-2.8-1.1h-1.9v-11.6h8.7c1.7,0,3.3.3,4.7.8,1.4.6,2.6,1.3,3.6,2.4s1.8,2.2,2.4,3.6c.6,1.4.8,3,.8,4.7v30.8c0,1.7-.3,3.3-.8,4.7-.6,1.4-1.3,2.6-2.4,3.7-1,1-2.2,1.8-3.6,2.4-1.4.6-3,.8-4.7.8h-8.7v-11.6.2Z"/>
    <path class="cls-7" d="M198.9,598.7v-46.3c0-1.2.4-2.1,1.1-2.8s1.6-1.1,2.8-1.1h6.7c1.2,0,2.1.4,2.8,1.1.7.7,1.1,1.6,1.1,2.8v46.3c0,1.2-.4,2.1-1.1,2.8-.7.7-1.6,1.1-2.8,1.1h-6.7c-1.2,0-2.1-.4-2.8-1.1-.7-.7-1.1-1.6-1.1-2.8Z"/>
    <path class="cls-7" d="M222.7,556.3c0-1.2.2-2.2.6-3.2.4-1,.9-1.8,1.6-2.4.7-.7,1.5-1.2,2.4-1.6,1-.4,2-.6,3.2-.6h16.4c1.2,0,2.1.4,2.8,1.1.7.7,1.1,1.6,1.1,2.8v3.9c0,1.2-.4,2.1-1.1,2.8-.7.7-1.6,1.1-2.8,1.1h-5.8c-1.2,0-2.1.4-2.8,1.1s-1.1,1.6-1.1,2.8v34.7c0,1.2-.4,2.1-1.1,2.8-.7.7-1.6,1.1-2.8,1.1h-6.7c-1.2,0-2.1-.4-2.8-1.1-.7-.7-1.1-1.6-1.1-2.8v-42.4h0Z"/>
    <path class="cls-7" d="M316.7,587.2c0,1.2.4,2.1,1.1,2.8s1.6,1.1,2.8,1.1h1.9v11.6h-8.7c-1.7,0-3.3-.3-4.7-.8-1.4-.6-2.6-1.3-3.7-2.4-1-1-1.8-2.2-2.4-3.7-.6-1.4-.8-3-.8-4.7v-11.6c0-1.7.3-3.3.8-4.7s1.3-2.6,2.4-3.6,2.2-1.8,3.7-2.4c1.4-.6,3-.8,4.7-.8h8.7v11.6h-1.9c-1.2,0-2.1.4-2.8,1.1-.7.7-1.1,1.6-1.1,2.8v3.9-.2ZM326.4,564c0-1.2-.4-2.1-1.1-2.8s-1.6-1.1-2.8-1.1h-12.5c-1.2,0-2.1-.4-2.8-1.1-.7-.7-1-1.6-1-2.8v-3.9c0-1.2.4-2.1,1.1-2.8s1.6-1.1,2.8-1.1h19.2c1.7,0,3.3.3,4.7.8,1.4.6,2.6,1.3,3.7,2.4s1.8,2.2,2.4,3.6c.6,1.4.8,3,.8,4.7v30.8c0,1.7-.3,3.3-.8,4.7-.6,1.4-1.3,2.6-2.4,3.7-1,1-2.2,1.8-3.6,2.4-1.4.6-3,.8-4.7.8h-2.9v-38.5.2Z"/>
    <path class="cls-7" d="M367.9,563.5c.4-.7.6-1.3.7-1.7,0-.4,0-.8-.2-1s-.5-.4-1-.5c-.5,0-1,0-1.7,0h-12.5c-1.2,0-2.1-.4-2.8-1.1-.7-.7-1.1-1.6-1.1-2.8v-3.9c0-1.2.4-2.1,1.1-2.8s1.6-1.1,2.8-1.1h30c1.2,0,2.1.2,2.9.6.8.4,1.3.9,1.6,1.6.3.7.4,1.5.2,2.4-.1,1-.5,2-1.1,3.1l-17.4,31.3c-.6,1.1-.7,2-.4,2.5.4.6,1.2.8,2.5.8h12.5c1.2,0,2.1.4,2.8,1.1.7.7,1.1,1.6,1.1,2.8v3.9c0,1.2-.4,2.1-1.1,2.8s-1.6,1.1-2.8,1.1h-30c-1.2,0-2.1-.2-2.8-.7s-1.3-1.1-1.6-1.8-.4-1.6-.3-2.5.4-1.8.9-2.7l17.7-31.3h0Z"/>
    <path class="cls-7" d="M396.4,598.7v-46.3c0-1.2.4-2.1,1.1-2.8s1.6-1.1,2.8-1.1h6.7c1.2,0,2.1.4,2.8,1.1.7.7,1.1,1.6,1.1,2.8v46.3c0,1.2-.4,2.1-1.1,2.8s-1.6,1.1-2.8,1.1h-6.7c-1.2,0-2.1-.4-2.8-1.1-.7-.7-1.1-1.6-1.1-2.8Z"/>
    <path class="cls-7" d="M420.1,529.3c0-1.2.4-2.1,1.1-2.8s1.6-1.1,2.8-1.1h6.7c1.2,0,2.1.4,2.8,1.1.7.7,1.1,1.6,1.1,2.8v57.8c0,1.2.4,2.1,1.1,2.8s1.6,1.1,2.8,1.1h1.9c1.2,0,2.1.4,2.8,1.1.7.7,1.1,1.6,1.1,2.8v3.9c0,1.2-.4,2.1-1.1,2.8s-1.6,1.1-2.8,1.1h-8.7c-1.7,0-3.3-.3-4.7-.8-1.4-.6-2.6-1.3-3.7-2.4-1-1-1.8-2.2-2.4-3.7-.6-1.4-.8-3-.8-4.7v-61.7h0Z"/>
    <path class="cls-7" d="M450.8,598.7v-46.3c0-1.2.4-2.1,1.1-2.8s1.6-1.1,2.8-1.1h6.7c1.2,0,2.1.4,2.8,1.1.7.7,1.1,1.6,1.1,2.8v46.3c0,1.2-.4,2.1-1.1,2.8s-1.6,1.1-2.8,1.1h-6.7c-1.2,0-2.1-.4-2.8-1.1-.7-.7-1.1-1.6-1.1-2.8Z"/>
    <path class="cls-7" d="M474.5,552.5c0-1.2.4-2.1,1.1-2.8s1.6-1.1,2.8-1.1h15.4c.8,0,1.7,0,2.5.2.8,0,1.7.3,2.4.6.8.3,1.5.6,2.2.9.7.4,1.3.8,1.8,1.3s1,.5,1.5,0c.9-.9,2.1-1.6,3.7-2.2,1.6-.5,3.3-.8,5.2-.8h7.7c1.7,0,3.3.3,4.7.8,1.4.6,2.6,1.3,3.6,2.4,1,1,1.8,2.2,2.4,3.6.6,1.4.8,3,.8,4.7v38.5c0,1.2-.4,2.1-1.1,2.8-.7.7-1.6,1.1-2.8,1.1h-6.7c-1.2,0-2.1-.4-2.8-1.1-.7-.7-1.1-1.6-1.1-2.8v-34.7c0-1.2-.4-2.1-1.1-2.8-.7-.7-1.6-1.1-2.8-1.1h-1c-1.2,0-2.1.4-2.8,1.1-.7.7-1.1,1.6-1.1,2.8v34.7c0,1.2-.4,2.1-1.1,2.8s-1.6,1.1-2.8,1.1h-3.9c-1.2,0-2.1-.4-2.8-1.1-.7-.7-1.1-1.6-1.1-2.8v-34.7c0-1.2-.4-2.1-1.1-2.8s-1.6-1.1-2.8-1.1h-1c-1.2,0-2.1.4-2.8,1.1-.7.7-1.1,1.6-1.1,2.8v34.7c0,1.2-.4,2.1-1.1,2.8s-1.6,1.1-2.8,1.1h-6.7c-1.2,0-2.1-.4-2.8-1.1-.7-.7-1.1-1.6-1.1-2.8v-46.3l.5.2Z"/>
  </g>
  <g>
    <path class="cls-7" d="M81.5,551.8s2.5-1.4,6.5-1.3,5.6,1.1,5.6,1.1l7.8,23.9-7.1,25-12.8-48.7Z"/>
    <path class="cls-7" d="M110.5,551.6s1.5-1.4,6.2-1.1,6.2,1.5,6.2,1.5l-15.2,58.8-1.2,3.2s-5.4,11-14,10.1-10.9-4.5-10.9-4.5c0,0-.7-2.4-.8-5.7s.8-4,.8-4c0,0,4.9,3.5,8.1,3.5s4.9-5,10.3-23.1,10.6-38.8,10.6-38.8h0Z"/>
  </g>
  <g>
    <path class="cls-7" d="M255.6,550.4s2.5-1.4,6.5-1.3,5.6,1.1,5.6,1.1l7.8,23.9-7.1,25-12.8-48.7h0Z"/>
    <path class="cls-7" d="M284.7,550.2s1.5-1.4,6.2-1.1,6.2,1.5,6.2,1.5l-15.2,58.8-1.2,3.2s-5.4,11-14,10.1-10.9-4.5-10.9-4.5c0,0-.7-2.4-.8-5.7s.8-4,.8-4c0,0,4.9,3.5,8.1,3.5s4.9-5,10.3-23.1,10.6-38.8,10.6-38.8h-.1Z"/>
  </g>
  <path class="cls-7" d="M528.3,529c-4.3,0-7.8,3.5-7.8,7.8s3.5,7.8,7.8,7.8,7.8-3.5,7.8-7.8-3.5-7.8-7.8-7.8ZM528.3,542.9c-3.4,0-6.1-2.7-6.1-6.1s2.7-6.1,6.1-6.1,6.1,2.7,6.1,6.1-2.7,6.1-6.1,6.1Z"/>
  <path class="cls-7" d="M527.2,540h-.9v-6.7h2.6c1.3,0,2.2.8,2.2,2s-.5,1.7-1.3,1.9l1.5,2.8h-1.1l-1.4-2.6h-1.6v2.6ZM527.2,536.6h1.6c.8,0,1.3-.4,1.3-1.2s-.5-1.2-1.3-1.2h-1.6v2.5h0Z"/>
  <path class="cls-7" d="M81.7,583"/>
  <polygon class="cls-12" points="213.4 538.3 207.4 541.8 201.3 545.3 201.2 538.3 201.3 531.3 207.4 534.7 213.4 538.3"/>
  <polygon class="cls-12" points="141.9 538.3 135.8 541.8 129.7 545.3 129.7 538.3 129.7 531.3 135.8 534.7 141.9 538.3"/>
  <polygon class="cls-12" points="75 538.3 69 541.8 62.9 545.3 62.8 538.3 62.9 531.3 69 534.7 75 538.3"/>
  <path class="cls-1" d="M170.6,644.8h-5.1l-1.1,4.9h-1.4l1.1-4.9h-3l-1.1,4.9h-1.4l1.1-4.9h-3.1v-1.4h3.4l1-4.3h-4.4v-1.4h4.8l1.4-5.9h1.4l-1.4,5.9h3.1l1.4-5.9h1.4l-1.4,5.9h3.4v1.4h-3.8l-1,4.3h4.8v1.4h0ZM164.4,643.4l1-4.3h-3.1l-1,4.3h3.1Z"/>
  <path class="cls-1" d="M186.7,649.7h-1.1l-.4-1.1c-.9.9-2.1,1.3-3.7,1.3s-2.8-.4-3.9-1.3c-1.1-.9-1.6-2.1-1.6-3.8v-8.1c0-2.2.7-3.7,2.2-4.6.8-.4,1.7-.6,2.8-.6s2.5.3,3.6.8l-.4,1c-1-.4-1.9-.5-2.8-.5-2.7,0-4,1.3-4,3.8v8.3c0,1.2.4,2.1,1.1,2.7.8.7,1.7,1,2.9,1s2.1-.3,2.8-1,1-1.5,1-2.6v-1.5h-1.7l-.5-1.4h3.5v7.7h.2Z"/>
  <path class="cls-1" d="M196.5,648.7c1.2,0,2.4-.3,3.8-1l.6,1.1c-1.3.8-2.7,1.2-4.1,1.2-3,0-4.5-1.3-4.5-3.8v-5.3c0-1.4.4-2.5,1.3-3.2.9-.8,2-1.2,3.4-1.2s2.5.4,3.3,1.1c.8.8,1.2,1.8,1.2,3.2v3.4l-7.8.4v1.6c0,.9.3,1.6,1,2,.5.3,1.1.5,1.9.5h0ZM200.1,643v-2.2c0-.7-.2-1.3-.6-1.8-.4-.5-.8-.8-1.2-.9-.4,0-.8-.2-1.3-.2-.9,0-1.7.3-2.4.8-.6.5-.9,1.3-.9,2.4v2.3l6.4-.3h0Z"/>
  <path class="cls-1" d="M209,649.7h-1.4v-18h1.4v18Z"/>
  <path class="cls-1" d="M219.4,648.7c1.2,0,2.4-.3,3.8-1l.6,1.1c-1.3.8-2.7,1.2-4.1,1.2-3,0-4.5-1.3-4.5-3.8v-5.3c0-1.4.4-2.5,1.3-3.2.9-.8,2-1.2,3.4-1.2s2.5.4,3.3,1.1c.8.8,1.2,1.8,1.2,3.2v3.4l-7.8.4v1.6c0,.9.3,1.6,1,2,.5.3,1.1.5,1.9.5h0ZM222.9,643v-2.2c0-.7-.2-1.3-.6-1.8-.4-.5-.8-.8-1.2-.9-.4,0-.8-.2-1.3-.2-.9,0-1.7.3-2.4.8-.6.5-.9,1.3-.9,2.4v2.3l6.4-.3h0Z"/>
  <path class="cls-1" d="M234.7,648.7c.8,0,1.6,0,2.6-.3l.3,1.2c-1.1.3-2.1.4-3,.4s-1.8,0-2.6-.4c-1.8-.6-2.7-2.1-2.7-4.5v-3.3c0-1.2.2-2.2.7-3,.8-1.4,2.2-2.1,4.1-2.1s2.3.3,3.4.8l-.4,1c-1-.4-1.8-.6-2.5-.6s-1.3,0-1.9.3c-.5.2-1,.6-1.4,1.1-.4.6-.6,1.4-.6,2.3v3.7c0,2.2,1.3,3.4,4,3.4h0Z"/>
  <path class="cls-1" d="M246.5,648.7c1.2,0,2.4-.3,3.8-1l.6,1.1c-1.3.8-2.7,1.2-4.1,1.2-3,0-4.5-1.3-4.5-3.8v-5.3c0-1.4.4-2.5,1.3-3.2.9-.8,2-1.2,3.4-1.2s2.5.4,3.3,1.1c.8.8,1.2,1.8,1.2,3.2v3.4l-7.8.4v1.6c0,.9.3,1.6,1,2,.5.3,1.1.5,1.9.5h0ZM250,643v-2.2c0-.7-.2-1.3-.6-1.8-.4-.5-.8-.8-1.2-.9-.4,0-.8-.2-1.3-.2-.9,0-1.7.3-2.4.8-.6.5-.9,1.3-.9,2.4v2.3l6.4-.3h0Z"/>
  <path class="cls-1" d="M265.7,633h0c0,.9-.3,1.6-.9,2.2-.6.6-1.3.8-2,.8s-1.5-.3-2-.8c-.6-.6-.9-1.3-.9-2.1h0c0,0,1.2,0,1.2,0h0c0,.6.2,1,.5,1.4.3.3.8.5,1.2.5s.9-.2,1.3-.5c.3-.3.5-.8.5-1.3h0c0,0,1.1,0,1.1,0h0ZM264.5,655.1l-.4-1.1c1.1-.4,1.7-1.3,1.7-2.7v-3.2c-.7,1.3-1.9,1.9-3.4,1.9s-2.7-.4-3.6-1.2c-.8-.8-1.3-2-1.3-3.6v-3.8c0-1.5.4-2.7,1.3-3.5s2.1-1.3,3.6-1.3,2.7.6,3.4,1.7v-1.5c-.1,0,1.3,0,1.3,0v14.5c0,1-.2,1.8-.6,2.4-.4.6-1.1,1-2.1,1.3h.1ZM265.8,645.3v-4.2c0-1.1-.3-1.9-1-2.4s-1.5-.8-2.4-.8-1.7.3-2.4.8c-.7.6-1,1.5-1,2.7v3.9c0,1.1.3,1.9.9,2.5.6.5,1.4.8,2.4.8s1.8-.3,2.5-.9c.7-.6,1-1.4,1-2.5h0Z"/>
  <path class="cls-1" d="M276.4,648.7c1.2,0,2.4-.3,3.8-1l.6,1.1c-1.3.8-2.7,1.2-4.1,1.2-3,0-4.5-1.3-4.5-3.8v-5.3c0-1.4.4-2.5,1.3-3.2.9-.8,2-1.2,3.4-1.2s2.5.4,3.3,1.1c.8.8,1.2,1.8,1.2,3.2v3.4l-7.8.4v1.6c0,.9.3,1.6,1,2,.5.3,1.1.5,1.9.5h0ZM279.9,643v-2.2c0-.7-.2-1.3-.6-1.8s-.8-.8-1.2-.9c-.4,0-.8-.2-1.3-.2-.9,0-1.7.3-2.4.8-.6.5-.9,1.3-.9,2.4v2.3l6.4-.3h0Z"/>
  <path class="cls-1" d="M289.2,632.3c0,.2,0,.4-.3.6-.2.2-.4.3-.6.3s-.4,0-.6-.3c-.2-.2-.3-.4-.3-.6s0-.4.3-.6c.2-.2.4-.3.6-.3s.4,0,.6.3.3.4.3.6ZM289,649.7h-1.4v-12.9h1.4v12.9Z"/>
  <path class="cls-1" d="M302.2,655.1l-.4-1.1c1.2-.4,1.7-1.3,1.7-2.7v-2.9c-.6,1-1.8,1.6-3.4,1.6-3.3,0-4.9-1.6-4.9-4.8v-8.4h1.4v8.6c0,1.1.3,1.9.9,2.5.6.5,1.4.8,2.5.8s1.9-.3,2.5-.8c.7-.5,1-1.4,1-2.5v-5.1c0-1.3,0-2.1.3-2.5.3-.6.8-1,1.6-1.3l.4,1c-.6.3-.9.9-.9,1.8v11.9c0,1-.2,1.9-.6,2.5s-1.1,1.1-2.1,1.4Z"/>
  <path class="cls-1" d="M313.4,632.3c0,.2,0,.4-.3.6-.2.2-.4.3-.6.3s-.4,0-.6-.3c-.2-.2-.3-.4-.3-.6s0-.4.3-.6c.2-.2.4-.3.6-.3s.4,0,.6.3.3.4.3.6ZM313.3,649.7h-1.4v-12.9h1.4v12.9Z"/>
  <path class="cls-1" d="M322,637.5c.8-.6,2-.9,3.4-.9s1.8.2,2.5.5c1.5.7,2.2,1.9,2.2,3.7v4.9c0,1.7-.7,2.9-2,3.6-1,.5-2.1.8-3.4.8s-2.6,0-4.1-.3v-18h1.4v5.8h0ZM322,638.8v9.7c1,.2,1.8.2,2.6.2,2.7,0,4-1,4-3v-4.8c0-.9-.2-1.6-.7-2.1-.6-.6-1.5-.9-2.6-.9s-2.3.3-3.3.9h0Z"/>
  <path class="cls-1" d="M337.7,632.3c0,.2,0,.4-.3.6-.2.2-.4.3-.6.3s-.4,0-.6-.3c-.2-.2-.3-.4-.3-.6s0-.4.3-.6c.2-.2.4-.3.6-.3s.4,0,.6.3.3.4.3.6ZM337.6,649.7h-1.4v-12.9h1.4v12.9Z"/>
  <path class="cls-1" d="M350.5,638.1c-.7-.2-1.3-.3-2-.3s-1.3.2-1.8.5-.8.7-.8,1.3v10.1h-1.4v-12.9h1.4v.9c.7-.7,1.8-1.1,3.1-1.1s1.2,0,1.9.2l-.4,1.3h0Z"/>
  <path class="cls-1" d="M361.1,649.9c-3.8,0-5.6-1.5-5.6-4.6v-2.1c0-1.7.6-2.8,1.8-3.4.6-.3,1.2-.4,1.8-.4,2,0,3.6.5,4.9,1.4,0-.9-.3-1.7-.8-2.2-.5-.6-1.6-.9-3.1-.9v-1.1c1.5,0,2.5.2,3.2.5.4.2.7.4.9.6.3.2.5.4.6.8.2.3.3.6.4.8s.2.5.2.9v9.5c-1.8.2-3.2.3-4.3.3h0ZM363.9,648.5v-6.6c-1.4-.7-2.9-1.1-4.4-1.2h-.3c-.7,0-1.2.2-1.7.6-.5.4-.7,1.1-.7,2v2.2c0,1.4.6,2.4,1.9,2.8.7.3,1.5.4,2.4.4s1.8,0,2.8-.2h0Z"/>
  <path class="cls-1" d="M376,636.6c1.4,0,2.6.3,3.4.9v-5.8h1.4v18c-1.5.2-2.8.3-4.1.3s-2.4-.3-3.4-.8c-1.3-.7-2-1.9-2-3.6v-4.9c0-1.8.7-3,2.2-3.7.7-.3,1.5-.5,2.5-.5h0ZM379.4,638.8c-1-.6-2.2-.9-3.4-.9s-1.9.3-2.4.8-.8,1.3-.8,2.1v4.8c0,2,1.3,3,4,3s1.6,0,2.6-.2v-9.7h0Z"/>
  <path class="cls-1" d="M387.1,649.7h-1.4v-12.9h1.4v12.9Z"/>
  <path class="cls-1" d="M401.1,637.9c1.5-.8,2.8-1.3,4.1-1.3s2.2.4,2.9,1.2c.7.8,1.1,1.8,1.1,3v8.9h-1.4v-8.8c0-.8-.2-1.4-.5-1.9s-.7-.8-1.2-.9c-.5,0-.8-.2-1.1-.2h-1c-.3,0-.8.2-1.4.4l-.9.5c.3.6.4,1.3.4,2v8.9h-1.4v-8.8c0-.9-.2-1.6-.6-2.1-.5-.6-1.3-.9-2.4-.9s-2.1.3-3.1.9v10.9h-1.4v-12.9h1.4v.8c1.1-.7,2.3-1,3.5-1s2.2.4,3,1.2h0Z"/>
</svg>