<?xml version="1.0" encoding="UTF-8"?>
<svg id="Layer_1" data-name="Layer 1" xmlns="http://www.w3.org/2000/svg" xmlns:xlink="http://www.w3.org/1999/xlink" version="1.1" viewBox="0 0 595.3 841.9">
  <defs>
    <style>
      .cls-1 {
        fill: none;
      }

      .cls-1, .cls-2, .cls-3, .cls-4, .cls-5, .cls-6, .cls-7, .cls-8, .cls-9, .cls-10, .cls-11, .cls-12 {
        stroke-width: 0px;
      }

      .cls-2 {
        fill: url(#linear-gradient);
      }

      .cls-3, .cls-13 {
        fill: #43b0c0;
      }

      .cls-4 {
        fill: url(#linear-gradient-17);
      }

      .cls-5 {
        fill: url(#linear-gradient-18);
      }

      .cls-6 {
        fill: #e6bf20;
      }

      .cls-13, .cls-14, .cls-15, .cls-16, .cls-17, .cls-18, .cls-19 {
        stroke-width: .2px;
      }

      .cls-13, .cls-14, .cls-15, .cls-16, .cls-17, .cls-18, .cls-19, .cls-20 {
        stroke-miterlimit: 10;
      }

      .cls-13, .cls-15, .cls-16, .cls-17 {
        stroke: #306e7a;
      }

      .cls-14 {
        fill: url(#linear-gradient-9);
        stroke: url(#linear-gradient-10);
      }

      .cls-15 {
        fill: url(#linear-gradient-5);
      }

      .cls-16 {
        fill: url(#linear-gradient-4);
      }

      .cls-17 {
        fill: url(#linear-gradient-3);
      }

      .cls-7 {
        fill: url(#linear-gradient-2);
      }

      .cls-8 {
        fill: url(#linear-gradient-8);
      }

      .cls-9 {
        fill: url(#linear-gradient-7);
      }

      .cls-10 {
        fill: url(#linear-gradient-6);
      }

      .cls-18 {
        fill: url(#linear-gradient-15);
        stroke: url(#linear-gradient-16);
      }

      .cls-19 {
        fill: url(#linear-gradient-11);
        stroke: url(#linear-gradient-12);
      }

      .cls-20 {
        fill: url(#linear-gradient-13);
        stroke: url(#linear-gradient-14);
        stroke-width: .5px;
      }

      .cls-11 {
        fill: #2d6c78;
      }

      .cls-12 {
        fill: #747474;
      }
    </style>
    <linearGradient id="linear-gradient" x1="139.8" y1="348.9" x2="359.1" y2="348.9" gradientUnits="userSpaceOnUse">
      <stop offset="0" stop-color="#43b0c0"/>
      <stop offset=".3" stop-color="#43b0c0"/>
      <stop offset=".6" stop-color="#42adbd"/>
      <stop offset="1" stop-color="#2e6e7a"/>
    </linearGradient>
    <linearGradient id="linear-gradient-2" x1="156.5" y1="161.4" x2="118.9" y2="123.8" gradientUnits="userSpaceOnUse">
      <stop offset="0" stop-color="#2e6e7a"/>
      <stop offset=".5" stop-color="#43b0c0"/>
    </linearGradient>
    <linearGradient id="linear-gradient-3" x1="119.9" y1="228.4" x2="248.8" y2="228.4" gradientUnits="userSpaceOnUse">
      <stop offset="0" stop-color="#43b0c0"/>
      <stop offset="1" stop-color="#2e6e7a"/>
    </linearGradient>
    <linearGradient id="linear-gradient-4" x1="129.7" y1="345.5" x2="248.8" y2="345.5" gradientUnits="userSpaceOnUse">
      <stop offset="0" stop-color="#43b0c0"/>
      <stop offset=".4" stop-color="#30737f"/>
      <stop offset=".6" stop-color="#2e6e7a"/>
    </linearGradient>
    <linearGradient id="linear-gradient-5" x1="161.2" y1="459.2" x2="108.2" y2="406.3" xlink:href="#linear-gradient-3"/>
    <linearGradient id="linear-gradient-6" x1="280.3" y1="291" x2="280.3" y2="340.3" gradientUnits="userSpaceOnUse">
      <stop offset="0" stop-color="#43b0c0"/>
      <stop offset=".3" stop-color="#43b0c0"/>
      <stop offset=".6" stop-color="#42adbd"/>
      <stop offset="1" stop-color="#2e6e7a"/>
    </linearGradient>
    <linearGradient id="linear-gradient-7" x1="568.6" y1="873.2" x2="333.2" y2="915.4" gradientTransform="translate(393.1 1315.2) rotate(-39.3) scale(1 -.9)" xlink:href="#linear-gradient-6"/>
    <linearGradient id="linear-gradient-8" x1="287.7" y1="349.5" x2="507" y2="349.5" gradientUnits="userSpaceOnUse">
      <stop offset="0" stop-color="#e6bf20"/>
      <stop offset=".3" stop-color="#e4be21"/>
      <stop offset="1" stop-color="#ab8f30"/>
    </linearGradient>
    <linearGradient id="linear-gradient-9" x1="304.4" y1="162" x2="266.8" y2="124.5" gradientUnits="userSpaceOnUse">
      <stop offset="0" stop-color="#ab8f30"/>
      <stop offset=".8" stop-color="#e6bf20"/>
    </linearGradient>
    <linearGradient id="linear-gradient-10" x1="267.7" y1="141.3" x2="287.4" y2="141.3" gradientUnits="userSpaceOnUse">
      <stop offset="0" stop-color="#e6bf20"/>
      <stop offset="0" stop-color="#ad9130"/>
      <stop offset="1" stop-color="#ab8f30"/>
    </linearGradient>
    <linearGradient id="linear-gradient-11" x1="267.8" y1="229" x2="396.7" y2="229" gradientUnits="userSpaceOnUse">
      <stop offset="0" stop-color="#e6bf20"/>
      <stop offset="1" stop-color="#ab8f30"/>
    </linearGradient>
    <linearGradient id="linear-gradient-12" x1="267.7" y1="229" x2="396.8" y2="229" xlink:href="#linear-gradient-10"/>
    <linearGradient id="linear-gradient-13" x1="277.6" y1="346.1" x2="396.7" y2="346.1" gradientUnits="userSpaceOnUse">
      <stop offset="0" stop-color="#e6bf20"/>
      <stop offset=".4" stop-color="#ab8f30"/>
    </linearGradient>
    <linearGradient id="linear-gradient-14" x1="277.2" y1="346.2" x2="397.1" y2="346.2" gradientUnits="userSpaceOnUse">
      <stop offset="0" stop-color="#ab8f30"/>
      <stop offset="1" stop-color="#aa9231"/>
    </linearGradient>
    <linearGradient id="linear-gradient-15" x1="309.1" y1="459.9" x2="256.1" y2="406.9" gradientUnits="userSpaceOnUse">
      <stop offset="0" stop-color="#e6bf20"/>
      <stop offset="1" stop-color="#ab8f30"/>
    </linearGradient>
    <linearGradient id="linear-gradient-16" x1="309.2" y1="459.8" x2="255.8" y2="406.4" gradientUnits="userSpaceOnUse">
      <stop offset="0" stop-color="#aa9131"/>
      <stop offset="1" stop-color="#ab8f30"/>
    </linearGradient>
    <linearGradient id="linear-gradient-17" x1="428.2" y1="286.3" x2="428.2" y2="336" gradientUnits="userSpaceOnUse">
      <stop offset=".3" stop-color="#e6bf20"/>
      <stop offset="1" stop-color="#ab8f30"/>
    </linearGradient>
    <linearGradient id="linear-gradient-18" x1="682.6" y1="770.4" x2="447.2" y2="812.6" gradientTransform="translate(393.1 1315.2) rotate(-39.3) scale(1 -.9)" gradientUnits="userSpaceOnUse">
      <stop offset="0" stop-color="#e6bf20"/>
      <stop offset=".3" stop-color="#e6bf20"/>
      <stop offset=".5" stop-color="#e6bf20"/>
      <stop offset="1" stop-color="#ab8f30"/>
    </linearGradient>
  </defs>
  <path class="cls-13" d="M139.8,103.3l-.6,75.8,109.6,111.8-109,114.1v75.5c73.1-62.7,146.2-125.3,219.3-188h0c-73.1-63.1-146.2-126.2-219.3-189.3Z"/>
  <path class="cls-2" d="M201.6,340.3c53.1-15.3,104.4-32.4,157.5-47.7l-38.7,33.2-180.6,79.2c21.7-22.1,40.2-42.6,61.8-64.8Z"/>
  <polyline class="cls-7" points="119.9 165.8 119.9 165.8 139.4 103.3 139.1 141.2 138.9 178.9"/>
  <polygon class="cls-17" points="248.8 291 119.9 165.8 139.2 179.2 248.8 291"/>
  <path class="cls-16" d="M243.6,285.9l-113.9,98.9,10.1,20.2c2.6-2.6,109-114.1,109-114.1l-5.2-5.1Z"/>
  <polygon class="cls-15" points="129.7 384.8 139.7 480.6 139.8 405.1 129.7 384.8"/>
  <polygon class="cls-10" points="359.1 292.6 201.6 340.3 248.8 291 359.1 292.6"/>
  <path class="cls-9" d="M139.8,405.1l180.6-79.2-180.6,154.8"/>
  <path class="cls-6" d="M287.7,104l-.6,75.8,109.6,111.8-109,114.1v75.5c73.1-62.7,146.2-125.3,219.3-188h0c-73.1-63.1-146.2-126.2-219.3-189.3Z"/>
  <path class="cls-8" d="M349.5,341c53.1-15.3,104.4-32.4,157.5-47.7l-38.7,33.2-180.6,79.2c21.7-22.1,40.2-42.6,61.8-64.8Z"/>
  <polyline class="cls-14" points="267.8 166.4 267.8 166.4 287.3 104 287 141.9 286.8 179.6"/>
  <polygon class="cls-19" points="396.7 291.6 267.8 166.4 287.1 179.8 396.7 291.6"/>
  <path class="cls-20" d="M391.5,286.6l-113.9,98.9,10.1,20.2c2.6-2.6,109-114.1,109-114.1l-5.2-5.1Z"/>
  <polygon class="cls-18" points="277.6 385.5 287.6 481.3 287.7 405.7 277.6 385.5"/>
  <polygon class="cls-4" points="507 293.3 349.5 341 396.7 291.6 507 293.3"/>
  <path class="cls-5" d="M287.7,481.3l180.6-154.8-180.6,79.2"/>
  <path class="cls-1" d="M201.6,340.3"/>
  <polygon class="cls-3" points="79.2 538.3 73.2 541.8 67.1 545.3 67 538.3 67.1 531.3 73.2 534.7 79.2 538.3"/>
  <polygon class="cls-3" points="146.1 538.3 140 541.8 133.9 545.3 133.9 538.3 133.9 531.3 140 534.7 146.1 538.3"/>
  <polygon class="cls-3" points="217.6 538.3 211.6 541.8 205.5 545.3 205.4 538.3 205.5 531.3 211.6 534.7 217.6 538.3"/>
  <g>
    <path class="cls-11" d="M61.2,598.7v-46.3c0-1.2.4-2.1,1.1-2.8s1.6-1.1,2.8-1.1h6.7c1.2,0,2.1.4,2.8,1.1.7.7,1.1,1.6,1.1,2.8v46.3c0,1.2-.4,2.1-1.1,2.8-.7.7-1.6,1.1-2.8,1.1h-6.7c-1.2,0-2.1-.4-2.8-1.1-.7-.7-1.1-1.6-1.1-2.8Z"/>
    <path class="cls-11" d="M127.4,598.7v-46.3c0-1.2.4-2.1,1.1-2.8s1.6-1.1,2.8-1.1h6.7c1.2,0,2.1.4,2.8,1.1.7.7,1.1,1.6,1.1,2.8v46.3c0,1.2-.4,2.1-1.1,2.8-.7.7-1.6,1.1-2.8,1.1h-6.7c-1.2,0-2.1-.4-2.8-1.1-.7-.7-1.1-1.6-1.1-2.8Z"/>
    <path class="cls-11" d="M165.6,602.6h-10.6c-1.2,0-2.1-.4-2.8-1.1-.7-.7-1.1-1.6-1.1-2.8v-69.4c0-1.2.4-2.1,1.1-2.8.7-.7,1.6-1.1,2.8-1.1h6.7c1.2,0,2.1.4,2.8,1.1.7.7,1.1,1.6,1.1,2.8v73.2ZM169.5,591h1.9c1.2,0,2.1-.4,2.8-1.1.7-.7,1.1-1.6,1.1-2.8v-23.1c0-1.2-.4-2.1-1.1-2.8-.7-.7-1.6-1.1-2.8-1.1h-1.9v-11.6h8.7c1.7,0,3.3.3,4.7.8,1.4.6,2.6,1.3,3.6,2.4s1.8,2.2,2.4,3.6c.6,1.4.8,3,.8,4.7v30.8c0,1.7-.3,3.3-.8,4.7-.6,1.4-1.3,2.6-2.4,3.7-1,1-2.2,1.8-3.6,2.4-1.4.6-3,.8-4.7.8h-8.7v-11.6Z"/>
    <path class="cls-11" d="M198.9,598.7v-46.3c0-1.2.4-2.1,1.1-2.8s1.6-1.1,2.8-1.1h6.7c1.2,0,2.1.4,2.8,1.1.7.7,1.1,1.6,1.1,2.8v46.3c0,1.2-.4,2.1-1.1,2.8-.7.7-1.6,1.1-2.8,1.1h-6.7c-1.2,0-2.1-.4-2.8-1.1-.7-.7-1.1-1.6-1.1-2.8Z"/>
    <path class="cls-11" d="M222.7,556.3c0-1.2.2-2.2.6-3.2.4-1,.9-1.8,1.6-2.4.7-.7,1.5-1.2,2.4-1.6,1-.4,2-.6,3.2-.6h16.4c1.2,0,2.1.4,2.8,1.1.7.7,1.1,1.6,1.1,2.8v3.9c0,1.2-.4,2.1-1.1,2.8-.7.7-1.6,1.1-2.8,1.1h-5.8c-1.2,0-2.1.4-2.8,1.1s-1.1,1.6-1.1,2.8v34.7c0,1.2-.4,2.1-1.1,2.8-.7.7-1.6,1.1-2.8,1.1h-6.7c-1.2,0-2.1-.4-2.8-1.1-.7-.7-1.1-1.6-1.1-2.8v-42.4Z"/>
    <path class="cls-11" d="M316.7,587.2c0,1.2.4,2.1,1.1,2.8.7.7,1.6,1.1,2.8,1.1h1.9v11.6h-8.7c-1.7,0-3.3-.3-4.7-.8-1.4-.6-2.6-1.3-3.7-2.4-1-1-1.8-2.2-2.4-3.7-.6-1.4-.8-3-.8-4.7v-11.6c0-1.7.3-3.3.8-4.7s1.3-2.6,2.4-3.6,2.2-1.8,3.7-2.4c1.4-.6,3-.8,4.7-.8h8.7v11.6h-1.9c-1.2,0-2.1.4-2.8,1.1-.7.7-1.1,1.6-1.1,2.8v3.9ZM326.4,564c0-1.2-.4-2.1-1.1-2.8-.7-.7-1.6-1.1-2.8-1.1h-12.5c-1.2,0-2.1-.4-2.8-1.1-.7-.7-1-1.6-1-2.8v-3.9c0-1.2.4-2.1,1.1-2.8.7-.7,1.6-1.1,2.8-1.1h19.2c1.7,0,3.3.3,4.7.8,1.4.6,2.6,1.3,3.7,2.4s1.8,2.2,2.4,3.6c.6,1.4.8,3,.8,4.7v30.8c0,1.7-.3,3.3-.8,4.7-.6,1.4-1.3,2.6-2.4,3.7-1,1-2.2,1.8-3.6,2.4-1.4.6-3,.8-4.7.8h-2.9v-38.5Z"/>
    <path class="cls-11" d="M367.9,563.5c.4-.7.6-1.3.7-1.7,0-.4,0-.8-.2-1-.2-.2-.5-.4-1-.5-.5,0-1-.1-1.7-.1h-12.5c-1.2,0-2.1-.4-2.8-1.1-.7-.7-1.1-1.6-1.1-2.8v-3.9c0-1.2.4-2.1,1.1-2.8s1.6-1.1,2.8-1.1h30c1.2,0,2.1.2,2.9.6.8.4,1.3.9,1.6,1.6.3.7.4,1.5.2,2.4-.1,1-.5,2-1.1,3.1l-17.4,31.3c-.6,1.1-.7,2-.4,2.5.4.6,1.2.8,2.5.8h12.5c1.2,0,2.1.4,2.8,1.1.7.7,1.1,1.6,1.1,2.8v3.9c0,1.2-.4,2.1-1.1,2.8-.7.7-1.6,1.1-2.8,1.1h-30c-1.2,0-2.1-.2-2.8-.7s-1.3-1.1-1.6-1.8-.4-1.6-.3-2.5c.1-.9.4-1.8.9-2.7l17.7-31.3Z"/>
    <path class="cls-11" d="M396.4,598.7v-46.3c0-1.2.4-2.1,1.1-2.8.7-.7,1.6-1.1,2.8-1.1h6.7c1.2,0,2.1.4,2.8,1.1.7.7,1.1,1.6,1.1,2.8v46.3c0,1.2-.4,2.1-1.1,2.8-.7.7-1.6,1.1-2.8,1.1h-6.7c-1.2,0-2.1-.4-2.8-1.1-.7-.7-1.1-1.6-1.1-2.8Z"/>
    <path class="cls-11" d="M420.1,529.3c0-1.2.4-2.1,1.1-2.8.7-.7,1.6-1.1,2.8-1.1h6.7c1.2,0,2.1.4,2.8,1.1.7.7,1.1,1.6,1.1,2.8v57.8c0,1.2.4,2.1,1.1,2.8.7.7,1.6,1.1,2.8,1.1h1.9c1.2,0,2.1.4,2.8,1.1.7.7,1.1,1.6,1.1,2.8v3.9c0,1.2-.4,2.1-1.1,2.8-.7.7-1.6,1.1-2.8,1.1h-8.7c-1.7,0-3.3-.3-4.7-.8-1.4-.6-2.6-1.3-3.7-2.4-1-1-1.8-2.2-2.4-3.7-.6-1.4-.8-3-.8-4.7v-61.7Z"/>
    <path class="cls-11" d="M450.8,598.7v-46.3c0-1.2.4-2.1,1.1-2.8.7-.7,1.6-1.1,2.8-1.1h6.7c1.2,0,2.1.4,2.8,1.1.7.7,1.1,1.6,1.1,2.8v46.3c0,1.2-.4,2.1-1.1,2.8-.7.7-1.6,1.1-2.8,1.1h-6.7c-1.2,0-2.1-.4-2.8-1.1-.7-.7-1.1-1.6-1.1-2.8Z"/>
    <path class="cls-11" d="M474.5,552.5c0-1.2.4-2.1,1.1-2.8.7-.7,1.6-1.1,2.8-1.1h15.4c.8,0,1.7,0,2.5.2.8.1,1.7.3,2.4.6.8.3,1.5.6,2.2.9.7.4,1.3.8,1.8,1.3.5.5,1,.5,1.5,0,.9-.9,2.1-1.6,3.7-2.2,1.6-.5,3.3-.8,5.2-.8h7.7c1.7,0,3.3.3,4.7.8,1.4.6,2.6,1.3,3.6,2.4,1,1,1.8,2.2,2.4,3.6.6,1.4.8,3,.8,4.7v38.5c0,1.2-.4,2.1-1.1,2.8-.7.7-1.6,1.1-2.8,1.1h-6.7c-1.2,0-2.1-.4-2.8-1.1-.7-.7-1.1-1.6-1.1-2.8v-34.7c0-1.2-.4-2.1-1.1-2.8-.7-.7-1.6-1.1-2.8-1.1h-1c-1.2,0-2.1.4-2.8,1.1-.7.7-1.1,1.6-1.1,2.8v34.7c0,1.2-.4,2.1-1.1,2.8-.7.7-1.6,1.1-2.8,1.1h-3.9c-1.2,0-2.1-.4-2.8-1.1-.7-.7-1.1-1.6-1.1-2.8v-34.7c0-1.2-.4-2.1-1.1-2.8-.7-.7-1.6-1.1-2.8-1.1h-1c-1.2,0-2.1.4-2.8,1.1-.7.7-1.1,1.6-1.1,2.8v34.7c0,1.2-.4,2.1-1.1,2.8-.7.7-1.6,1.1-2.8,1.1h-6.7c-1.2,0-2.1-.4-2.8-1.1-.7-.7-1.1-1.6-1.1-2.8v-46.3Z"/>
  </g>
  <g>
    <path class="cls-11" d="M81.5,551.8s2.5-1.4,6.5-1.3,5.6,1.1,5.6,1.1l7.8,23.9-7.1,25-12.8-48.7Z"/>
    <path class="cls-11" d="M110.5,551.6s1.5-1.4,6.2-1.1,6.2,1.5,6.2,1.5l-15.2,58.8-1.2,3.2s-5.4,11-14,10.1-10.9-4.5-10.9-4.5c0,0-.7-2.4-.8-5.7s.8-4,.8-4c0,0,4.9,3.5,8.1,3.5s4.9-5,10.3-23.1,10.6-38.8,10.6-38.8Z"/>
  </g>
  <g>
    <path class="cls-11" d="M255.6,550.4s2.5-1.4,6.5-1.3,5.6,1.1,5.6,1.1l7.8,23.9-7.1,25-12.8-48.7Z"/>
    <path class="cls-11" d="M284.7,550.2s1.5-1.4,6.2-1.1,6.2,1.5,6.2,1.5l-15.2,58.8-1.2,3.2s-5.4,11-14,10.1-10.9-4.5-10.9-4.5c0,0-.7-2.4-.8-5.7s.8-4,.8-4c0,0,4.9,3.5,8.1,3.5s4.9-5,10.3-23.1,10.6-38.8,10.6-38.8Z"/>
  </g>
  <path class="cls-11" d="M528.3,529c-4.3,0-7.8,3.5-7.8,7.8s3.5,7.8,7.8,7.8,7.8-3.5,7.8-7.8-3.5-7.8-7.8-7.8ZM528.3,542.9c-3.4,0-6.1-2.7-6.1-6.1s2.7-6.1,6.1-6.1,6.1,2.7,6.1,6.1-2.7,6.1-6.1,6.1Z"/>
  <path class="cls-11" d="M527.2,540h-.9v-6.7h2.6c1.3,0,2.2.8,2.2,2s-.5,1.7-1.3,1.9l1.5,2.8h-1.1l-1.4-2.6h-1.6v2.6ZM527.2,536.6h1.6c.8,0,1.3-.4,1.3-1.2s-.5-1.2-1.3-1.2h-1.6v2.5Z"/>
  <path class="cls-11" d="M81.7,583"/>
  <polygon class="cls-6" points="213.4 538.3 207.4 541.8 201.3 545.3 201.2 538.3 201.3 531.3 207.4 534.7 213.4 538.3"/>
  <polygon class="cls-6" points="141.9 538.3 135.8 541.8 129.7 545.3 129.7 538.3 129.7 531.3 135.8 534.7 141.9 538.3"/>
  <polygon class="cls-6" points="75 538.3 69 541.8 62.9 545.3 62.8 538.3 62.9 531.3 69 534.7 75 538.3"/>
  <path class="cls-12" d="M170.6,644.8h-5.1l-1.1,4.9h-1.4l1.1-4.9h-3l-1.1,4.9h-1.4l1.1-4.9h-3.1v-1.4h3.4l1-4.3h-4.4v-1.4h4.8l1.4-5.9h1.4l-1.4,5.9h3.1l1.4-5.9h1.4l-1.4,5.9h3.4v1.4h-3.8l-1,4.3h4.8v1.4ZM164.4,643.4l1-4.3h-3.1l-1,4.3h3Z"/>
  <path class="cls-12" d="M186.7,649.7h-1.1l-.4-1.1c-.9.9-2.1,1.3-3.7,1.3s-2.8-.4-3.9-1.3c-1.1-.9-1.6-2.1-1.6-3.8v-8.1c0-2.2.7-3.7,2.2-4.6.8-.4,1.7-.6,2.8-.6s2.5.3,3.6.8l-.4,1c-1-.4-1.9-.5-2.8-.5-2.7,0-4,1.3-4,3.8v8.3c0,1.2.4,2.1,1.1,2.7.8.7,1.7,1,2.9,1s2.1-.3,2.8-1c.7-.7,1-1.5,1-2.6v-1.5h-1.7l-.5-1.4h3.5v7.7Z"/>
  <path class="cls-12" d="M196.5,648.7c1.2,0,2.4-.3,3.8-1l.6,1.1c-1.3.8-2.7,1.2-4.1,1.2-3,0-4.5-1.3-4.5-3.8v-5.3c0-1.4.4-2.5,1.3-3.2.9-.8,2-1.2,3.4-1.2s2.5.4,3.3,1.1c.8.8,1.2,1.8,1.2,3.2v3.4l-7.8.4v1.6c0,.9.3,1.6,1,2,.5.3,1.1.5,1.9.5ZM200.1,643v-2.2c0-.7-.2-1.3-.6-1.8-.4-.5-.8-.8-1.2-.9-.4-.1-.8-.2-1.3-.2-.9,0-1.7.3-2.4.8-.6.5-.9,1.3-.9,2.4v2.3l6.4-.3Z"/>
  <path class="cls-12" d="M209,649.7h-1.4v-18h1.4v18Z"/>
  <path class="cls-12" d="M219.4,648.7c1.2,0,2.4-.3,3.8-1l.6,1.1c-1.3.8-2.7,1.2-4.1,1.2-3,0-4.5-1.3-4.5-3.8v-5.3c0-1.4.4-2.5,1.3-3.2.9-.8,2-1.2,3.4-1.2s2.5.4,3.3,1.1c.8.8,1.2,1.8,1.2,3.2v3.4l-7.8.4v1.6c0,.9.3,1.6,1,2,.5.3,1.1.5,1.9.5ZM222.9,643v-2.2c0-.7-.2-1.3-.6-1.8-.4-.5-.8-.8-1.2-.9-.4-.1-.8-.2-1.3-.2-.9,0-1.7.3-2.4.8-.6.5-.9,1.3-.9,2.4v2.3l6.4-.3Z"/>
  <path class="cls-12" d="M234.7,648.7c.8,0,1.6-.1,2.6-.3l.3,1.2c-1.1.3-2.1.4-3,.4s-1.8-.1-2.6-.4c-1.8-.6-2.7-2.1-2.7-4.5v-3.3c0-1.2.2-2.2.7-3,.8-1.4,2.2-2.1,4.1-2.1s2.3.3,3.4.8l-.4,1c-1-.4-1.8-.6-2.5-.6s-1.3,0-1.9.3c-.5.2-1,.6-1.4,1.1-.4.6-.6,1.4-.6,2.3v3.7c0,2.2,1.3,3.4,4,3.4Z"/>
  <path class="cls-12" d="M246.5,648.7c1.2,0,2.4-.3,3.8-1l.6,1.1c-1.3.8-2.7,1.2-4.1,1.2-3,0-4.5-1.3-4.5-3.8v-5.3c0-1.4.4-2.5,1.3-3.2.9-.8,2-1.2,3.4-1.2s2.5.4,3.3,1.1c.8.8,1.2,1.8,1.2,3.2v3.4l-7.8.4v1.6c0,.9.3,1.6,1,2,.5.3,1.1.5,1.9.5ZM250,643v-2.2c0-.7-.2-1.3-.6-1.8-.4-.5-.8-.8-1.2-.9-.4-.1-.8-.2-1.3-.2-.9,0-1.7.3-2.4.8-.6.5-.9,1.3-.9,2.4v2.3l6.4-.3Z"/>
  <path class="cls-12" d="M265.7,633h0c0,.9-.3,1.6-.9,2.2-.6.6-1.3.8-2,.8s-1.5-.3-2-.8c-.6-.6-.9-1.3-.9-2.1h0c0-.1,1.2-.1,1.2-.1h0c0,.6.2,1,.5,1.4.3.3.8.5,1.2.5s.9-.2,1.3-.5c.3-.3.5-.8.5-1.3h0c0-.1,1.1-.1,1.1-.1ZM264.5,655.1l-.4-1.1c1.1-.4,1.7-1.3,1.7-2.7v-3.2c-.7,1.3-1.9,1.9-3.4,1.9s-2.7-.4-3.6-1.2c-.8-.8-1.3-2-1.3-3.6v-3.8c0-1.5.4-2.7,1.3-3.5.9-.8,2.1-1.3,3.6-1.3s2.7.6,3.4,1.7v-1.5c-.1,0,1.3,0,1.3,0v14.5c0,1-.2,1.8-.6,2.4-.4.6-1.1,1-2.1,1.3ZM265.8,645.3v-4.2c0-1.1-.3-1.9-1-2.4-.7-.5-1.5-.8-2.4-.8s-1.7.3-2.4.8c-.7.6-1,1.5-1,2.7v3.9c0,1.1.3,1.9.9,2.5.6.5,1.4.8,2.4.8s1.8-.3,2.5-.9c.7-.6,1-1.4,1-2.5Z"/>
  <path class="cls-12" d="M276.4,648.7c1.2,0,2.4-.3,3.8-1l.6,1.1c-1.3.8-2.7,1.2-4.1,1.2-3,0-4.5-1.3-4.5-3.8v-5.3c0-1.4.4-2.5,1.3-3.2.9-.8,2-1.2,3.4-1.2s2.5.4,3.3,1.1c.8.8,1.2,1.8,1.2,3.2v3.4l-7.8.4v1.6c0,.9.3,1.6,1,2,.5.3,1.1.5,1.9.5ZM279.9,643v-2.2c0-.7-.2-1.3-.6-1.8-.4-.5-.8-.8-1.2-.9-.4-.1-.8-.2-1.3-.2-.9,0-1.7.3-2.4.8-.6.5-.9,1.3-.9,2.4v2.3l6.4-.3Z"/>
  <path class="cls-12" d="M289.2,632.3c0,.2,0,.4-.3.6-.2.2-.4.3-.6.3s-.4,0-.6-.3c-.2-.2-.3-.4-.3-.6s0-.4.3-.6c.2-.2.4-.3.6-.3s.4,0,.6.3.3.4.3.6ZM289,649.7h-1.4v-12.9h1.4v12.9Z"/>
  <path class="cls-12" d="M302.2,655.1l-.4-1.1c1.2-.4,1.7-1.3,1.7-2.7v-2.9c-.6,1-1.8,1.6-3.4,1.6-3.3,0-4.9-1.6-4.9-4.8v-8.4h1.4v8.6c0,1.1.3,1.9.9,2.5.6.5,1.4.8,2.5.8s1.9-.3,2.5-.8c.7-.5,1-1.4,1-2.5v-5.1c0-1.3,0-2.1.3-2.5.3-.6.8-1,1.6-1.3l.4,1c-.6.3-.9.9-.9,1.8v11.9c0,1-.2,1.9-.6,2.5-.4.6-1.1,1.1-2.1,1.4Z"/>
  <path class="cls-12" d="M313.4,632.3c0,.2,0,.4-.3.6-.2.2-.4.3-.6.3s-.4,0-.6-.3c-.2-.2-.3-.4-.3-.6s0-.4.3-.6c.2-.2.4-.3.6-.3s.4,0,.6.3.3.4.3.6ZM313.3,649.7h-1.4v-12.9h1.4v12.9Z"/>
  <path class="cls-12" d="M322,637.5c.8-.6,2-.9,3.4-.9s1.8.2,2.5.5c1.5.7,2.2,1.9,2.2,3.7v4.9c0,1.7-.7,2.9-2,3.6-1,.5-2.1.8-3.4.8s-2.6-.1-4.1-.3v-18h1.4v5.8ZM322,638.8v9.7c1,.2,1.8.2,2.6.2,2.7,0,4-1,4-3v-4.8c0-.9-.2-1.6-.7-2.1-.6-.6-1.5-.9-2.6-.9s-2.3.3-3.3.9Z"/>
  <path class="cls-12" d="M337.7,632.3c0,.2,0,.4-.3.6-.2.2-.4.3-.6.3s-.4,0-.6-.3c-.2-.2-.3-.4-.3-.6s0-.4.3-.6c.2-.2.4-.3.6-.3s.4,0,.6.3.3.4.3.6ZM337.6,649.7h-1.4v-12.9h1.4v12.9Z"/>
  <path class="cls-12" d="M350.5,638.1c-.7-.2-1.3-.3-2-.3s-1.3.2-1.8.5c-.5.3-.8.7-.8,1.3v10.1h-1.4v-12.9h1.4v.9c.7-.7,1.8-1.1,3.1-1.1s1.2,0,1.9.2l-.4,1.3Z"/>
  <path class="cls-12" d="M361.1,649.9c-3.8,0-5.6-1.5-5.6-4.6v-2.1c0-1.7.6-2.8,1.8-3.4.6-.3,1.2-.4,1.8-.4,2,0,3.6.5,4.9,1.4,0-.9-.3-1.7-.8-2.2-.5-.6-1.6-.9-3.1-.9v-1.1c1.5,0,2.5.2,3.2.5.4.2.7.4.9.6.3.2.5.4.6.8.2.3.3.6.4.8.1.2.2.5.2.9,0,.6,0,1.2,0,1.9v7.6c-1.8.2-3.2.3-4.3.3ZM363.9,648.5v-6.6c-1.4-.7-2.9-1.1-4.4-1.2-.1,0-.2,0-.3,0-.7,0-1.2.2-1.7.6-.5.4-.7,1.1-.7,2v2.2c0,1.4.6,2.4,1.9,2.8.7.3,1.5.4,2.4.4s1.8,0,2.8-.2Z"/>
  <path class="cls-12" d="M376,636.6c1.4,0,2.6.3,3.4.9v-5.8h1.4v18c-1.5.2-2.8.3-4.1.3s-2.4-.3-3.4-.8c-1.3-.7-2-1.9-2-3.6v-4.9c0-1.8.7-3,2.2-3.7.7-.3,1.5-.5,2.5-.5ZM379.4,638.8c-1-.6-2.2-.9-3.4-.9s-1.9.3-2.4.8c-.5.5-.8,1.3-.8,2.1v4.8c0,2,1.3,3,4,3s1.6,0,2.6-.2v-9.7Z"/>
  <path class="cls-12" d="M387.1,649.7h-1.4v-12.9h1.4v12.9Z"/>
  <path class="cls-12" d="M401.1,637.9c1.5-.8,2.8-1.3,4.1-1.3s2.2.4,2.9,1.2c.7.8,1.1,1.8,1.1,3v8.9h-1.4v-8.8c0-.8-.2-1.4-.5-1.9-.3-.5-.7-.8-1.2-.9-.5-.1-.8-.2-1.1-.2s-.6,0-1,0c-.3,0-.8.2-1.4.4l-.9.5c.3.6.4,1.3.4,2v8.9h-1.4v-8.8c0-.9-.2-1.6-.6-2.1-.5-.6-1.3-.9-2.4-.9s-2.1.3-3.1.9v10.9h-1.4v-12.9h1.4v.8c1.1-.7,2.3-1,3.5-1s2.2.4,3,1.2Z"/>
</svg>